<svg width="646" height="632" viewBox="0 0 646 632" fill="none" xmlns="http://www.w3.org/2000/svg">
<path d="M645.249 282.144C645.249 190.908 572.668 116.378 482.251 113.078C470.601 80.0729 449.002 51.4929 420.429 31.2774C391.856 11.0618 357.716 0.205994 322.715 0.205994C287.714 0.205994 253.574 11.0618 225.001 31.2774C196.428 51.4929 174.828 80.0729 163.179 113.078C72.7742 116.378 0.21936 190.921 0.21936 282.144C0.221729 307.879 6.10564 333.273 17.4217 356.388C28.7378 379.502 45.1868 399.724 65.5122 415.509C61.0937 430.777 58.8458 446.591 58.8348 462.485C58.8348 555.734 134.741 631.641 228.056 631.641C262.15 631.674 295.449 621.344 323.54 602.021C351.305 620.636 383.985 630.559 417.413 630.524C510.714 630.524 586.621 554.617 586.621 461.355C586.618 445.79 584.463 430.301 580.216 415.328C600.462 399.53 616.841 379.327 628.11 356.252C639.379 333.176 645.24 307.836 645.249 282.157V282.144ZM457.841 169.408C457.841 237.143 407.708 293.212 342.636 302.903C341.506 296.031 340.915 289.082 340.87 282.118C340.919 249.762 352.571 218.497 373.71 194.001C394.849 169.505 424.073 153.404 456.074 148.622C457.199 155.494 457.79 162.444 457.841 169.408ZM323.345 558.138C310.457 545.678 300.185 530.772 293.13 514.293C286.075 497.813 282.379 480.092 282.258 462.167C282.137 444.241 285.594 426.472 292.426 409.899C299.258 393.326 309.328 378.283 322.046 365.65C334.938 378.107 345.214 393.012 352.272 409.492C359.33 425.971 363.028 443.694 363.149 461.621C363.27 479.548 359.812 497.319 352.977 513.892C346.142 530.465 336.068 545.508 323.345 558.138V558.138ZM189.355 148.635C254.427 158.313 304.547 214.395 304.547 282.144C304.497 289.108 303.902 296.058 302.767 302.929C237.721 293.212 187.628 237.143 187.628 169.408C187.68 162.444 188.271 155.495 189.394 148.622L189.355 148.635ZM290.114 342.578C282.147 358.6 271.065 372.873 257.518 384.563C243.97 396.252 228.228 405.124 211.212 410.659C194.196 416.194 176.247 418.281 158.415 416.799C140.583 415.316 123.225 410.294 107.356 402.025C115.323 386.003 126.405 371.729 139.952 360.04C153.5 348.35 169.242 339.478 186.258 333.943C203.274 328.408 221.223 326.321 239.055 327.804C256.888 329.286 274.245 334.309 290.114 342.578V342.578ZM354.9 341.668C370.854 333.289 388.327 328.196 406.285 326.691C424.242 325.187 442.319 327.302 459.445 332.911C476.57 338.519 492.396 347.508 505.985 359.344C519.573 371.18 530.648 385.623 538.554 401.817C522.6 410.197 505.127 415.29 487.169 416.794C469.212 418.298 451.135 416.184 434.009 410.575C416.884 404.966 401.058 395.977 387.469 384.141C373.881 372.305 362.806 357.862 354.9 341.668V341.668ZM322.734 34.288C349.046 34.3167 374.777 42.0179 396.778 56.4484C418.779 70.8789 436.095 91.4123 446.604 115.534C419.855 120.315 394.645 131.446 373.091 147.991C351.537 164.536 334.268 186.012 322.734 210.615C311.21 186.006 293.943 164.524 272.387 147.978C250.832 131.432 225.617 120.305 198.865 115.534C209.375 91.4133 226.691 70.8808 248.691 56.4505C270.692 42.0203 296.423 34.3184 322.734 34.288V34.288ZM34.3338 282.144C34.377 248.825 46.7107 216.693 68.9724 191.902C91.2341 167.111 121.859 151.405 154.981 147.79C151.439 174.759 154.484 202.185 163.858 227.719C173.231 253.253 188.653 276.136 208.803 294.407C181.699 297.538 155.751 307.164 133.164 322.469C110.576 337.774 92.0167 358.305 79.0618 382.317C64.9951 369.693 53.7429 354.249 46.0368 336.991C38.3307 319.732 34.3432 301.045 34.3338 282.144V282.144ZM92.9102 462.485C92.9092 453.071 93.8976 443.683 95.8592 434.476C120.191 446.245 146.992 452.001 174.011 451.262C201.029 450.523 227.476 443.309 251.128 430.228C246.113 456.812 247.577 484.213 255.394 510.111C263.211 536.01 277.152 559.644 296.038 579.014C275.533 591.041 252.215 597.435 228.444 597.549C204.673 597.663 181.295 591.494 160.676 579.665C140.057 567.836 122.93 550.769 111.029 530.191C99.1293 509.613 92.8785 486.256 92.9102 462.485V462.485ZM552.558 461.355C552.593 484.996 546.415 508.231 534.643 528.732C522.871 549.234 505.918 566.282 485.483 578.169C465.048 590.056 441.848 596.365 418.207 596.463C394.566 596.561 371.315 590.445 350.782 578.729C369.359 559.222 382.987 535.545 390.523 509.684C398.059 483.822 399.284 456.531 394.094 430.098C417.8 443.264 444.329 450.524 471.436 451.263C498.543 452.003 525.428 446.2 549.817 434.346C551.641 443.233 552.559 452.282 552.558 461.355V461.355ZM437.692 293.407C454.8 277.6 468.452 258.423 477.786 237.083C487.12 215.742 491.936 192.7 491.929 169.408C491.911 162.179 491.438 154.959 490.513 147.79C516.409 150.535 540.958 160.718 561.194 177.109C581.43 193.5 596.488 215.398 604.552 240.159C612.615 264.921 613.338 291.487 606.634 316.651C599.93 341.814 586.085 364.499 566.77 381.967C553.956 357.918 535.534 337.313 513.064 321.897C490.595 306.481 464.74 296.708 437.692 293.407" fill="white"/>
</svg>
