<svg width="191" height="93" viewBox="0 0 191 93" fill="none" xmlns="http://www.w3.org/2000/svg">
<path d="M2.0353 66.797H43.9913C44.1909 66.798 44.3866 66.761 44.5542 66.691C44.7218 66.62 44.854 66.52 44.9347 66.401C45.0153 66.283 45.0408 66.152 45.008 66.024C44.9752 65.896 44.8856 65.777 44.7502 65.682L44.6916 65.642L23.8112 48.118L23.6076 47.971C23.5114 47.903 23.3942 47.848 23.2635 47.811C23.1328 47.773 22.9915 47.754 22.8487 47.754C22.5992 47.757 22.3597 47.818 22.1735 47.926L22.0479 48.02L21.8499 48.163L1.4829 65.505L1.1704 65.753C1.0551 65.863 0.993897 65.993 0.994597 66.126C0.994597 66.214 1.0216 66.302 1.0739 66.383C1.1263 66.465 1.203 66.539 1.2997 66.602C1.3965 66.664 1.5112 66.713 1.6374 66.747C1.7637 66.781 1.8989 66.798 2.0353 66.797Z" fill="white"/>
<path d="M43.8627 69.275H1.8118C1.6766 69.275 1.5427 69.292 1.4178 69.326C1.2929 69.359 1.1794 69.409 1.0838 69.471C0.988202 69.533 0.912399 69.606 0.860699 69.687C0.808899 69.768 0.7823 69.855 0.7823 69.943V91.283C0.7819 91.371 0.808299 91.458 0.859799 91.539C0.911299 91.621 0.987099 91.695 1.0827 91.757C1.1783 91.819 1.2919 91.869 1.417 91.903C1.5421 91.937 1.6762 91.954 1.8118 91.954H15.3461V78.522C15.3457 78.435 15.3721 78.348 15.4237 78.266C15.4753 78.185 15.5511 78.112 15.6468 78.049C15.7425 77.987 15.8561 77.938 15.9812 77.905C16.1063 77.871 16.2403 77.854 16.3756 77.854H28.9306C29.0659 77.854 29.1999 77.871 29.325 77.905C29.4501 77.938 29.5637 77.987 29.6594 78.049C29.7551 78.112 29.8309 78.185 29.8825 78.266C29.9341 78.348 29.9605 78.435 29.9601 78.522V91.954H43.8543C43.9899 91.954 44.124 91.937 44.2491 91.903C44.3742 91.869 44.4878 91.819 44.5834 91.757C44.679 91.695 44.7548 91.621 44.8063 91.539C44.8578 91.458 44.8842 91.371 44.8838 91.283V69.936C44.8809 69.761 44.7723 69.593 44.5814 69.47C44.3904 69.346 44.1324 69.276 43.8627 69.275Z" fill="white"/>
<path d="M189.197 63.678H147.578C147.446 63.677 147.315 63.693 147.192 63.724C147.07 63.756 146.958 63.803 146.863 63.862C146.768 63.922 146.693 63.993 146.641 64.072C146.589 64.151 146.561 64.235 146.56 64.321V91.585C146.564 91.758 146.674 91.922 146.865 92.042C147.056 92.162 147.312 92.228 147.578 92.226H189.197C189.328 92.227 189.46 92.212 189.582 92.18C189.705 92.149 189.817 92.102 189.912 92.043C190.007 91.983 190.082 91.912 190.135 91.834C190.187 91.755 190.216 91.671 190.218 91.585V64.321C190.216 64.235 190.189 64.15 190.136 64.072C190.084 63.993 190.008 63.921 189.914 63.862C189.819 63.802 189.706 63.755 189.583 63.724C189.46 63.692 189.329 63.677 189.197 63.678ZM166.425 81.478C166.423 81.564 166.396 81.648 166.344 81.727C166.292 81.806 166.217 81.877 166.123 81.937C166.028 81.996 165.917 82.044 165.794 82.076C165.672 82.107 165.541 82.123 165.409 82.122H152.974C152.842 82.124 152.71 82.108 152.587 82.076C152.465 82.044 152.353 81.997 152.258 81.937C152.163 81.878 152.087 81.806 152.035 81.727C151.983 81.649 151.955 81.564 151.953 81.478V76.577C151.954 76.491 151.982 76.406 152.034 76.327C152.086 76.248 152.162 76.176 152.257 76.117C152.352 76.057 152.464 76.01 152.587 75.978C152.71 75.946 152.842 75.931 152.974 75.932H165.409C165.541 75.931 165.672 75.947 165.795 75.978C165.917 76.01 166.029 76.057 166.123 76.117C166.218 76.177 166.293 76.249 166.345 76.327C166.396 76.406 166.424 76.491 166.425 76.577V81.478ZM166.425 72.417C166.423 72.503 166.396 72.587 166.344 72.666C166.292 72.745 166.217 72.816 166.123 72.876C166.028 72.936 165.917 72.983 165.794 73.015C165.672 73.047 165.541 73.062 165.409 73.062H152.974C152.842 73.063 152.71 73.047 152.587 73.015C152.465 72.984 152.353 72.936 152.258 72.877C152.163 72.817 152.087 72.745 152.035 72.667C151.983 72.588 151.955 72.503 151.953 72.417V67.512C151.958 67.339 152.068 67.175 152.26 67.055C152.451 66.935 152.708 66.869 152.974 66.871H165.409C165.541 66.87 165.671 66.886 165.793 66.917C165.916 66.949 166.027 66.996 166.121 67.055C166.216 67.115 166.291 67.186 166.343 67.264C166.395 67.342 166.423 67.427 166.425 67.512V72.417ZM185.43 81.478C185.429 81.564 185.401 81.649 185.349 81.728C185.297 81.807 185.221 81.878 185.126 81.938C185.031 81.998 184.919 82.045 184.796 82.077C184.673 82.108 184.541 82.124 184.409 82.122H171.979C171.847 82.124 171.716 82.108 171.593 82.077C171.469 82.045 171.357 81.998 171.262 81.938C171.167 81.878 171.092 81.807 171.04 81.728C170.987 81.649 170.96 81.564 170.958 81.478V76.577C170.96 76.491 170.987 76.406 171.04 76.327C171.092 76.248 171.167 76.176 171.262 76.117C171.357 76.057 171.469 76.01 171.593 75.978C171.716 75.946 171.847 75.931 171.979 75.932H184.409C184.541 75.931 184.673 75.946 184.796 75.978C184.919 76.01 185.031 76.057 185.126 76.117C185.221 76.176 185.297 76.248 185.349 76.327C185.401 76.406 185.429 76.491 185.43 76.577V81.478ZM185.43 72.417C185.429 72.503 185.401 72.588 185.349 72.667C185.297 72.746 185.221 72.817 185.126 72.877C185.031 72.937 184.919 72.984 184.796 73.016C184.673 73.047 184.541 73.063 184.409 73.062H171.979C171.847 73.063 171.716 73.047 171.593 73.016C171.469 72.984 171.357 72.937 171.262 72.877C171.167 72.817 171.092 72.746 171.04 72.667C170.987 72.588 170.96 72.503 170.958 72.417V67.512C170.961 67.426 170.989 67.342 171.041 67.264C171.094 67.185 171.17 67.114 171.264 67.054C171.359 66.995 171.471 66.948 171.594 66.917C171.717 66.885 171.848 66.87 171.979 66.871H184.409C184.541 66.87 184.672 66.885 184.795 66.917C184.917 66.948 185.029 66.995 185.124 67.054C185.219 67.114 185.295 67.185 185.347 67.264C185.4 67.342 185.428 67.426 185.43 67.512V72.417Z" fill="white"/>
<path d="M92.448 0.393616H51.7138C51.583 0.393916 51.4535 0.410812 51.3328 0.443512C51.2121 0.476212 51.1025 0.524013 51.0103 0.584213C50.918 0.644313 50.845 0.715712 50.7953 0.794212C50.7456 0.872712 50.7202 0.956818 50.7205 1.04162V91.343C50.7213 91.513 50.826 91.677 51.0121 91.798C51.1981 91.919 51.4503 91.988 51.7138 91.989H92.448C92.712 91.988 92.966 91.92 93.153 91.799C93.341 91.678 93.447 91.514 93.449 91.343V1.03802C93.449 0.866017 93.343 0.701212 93.155 0.579712C92.967 0.458212 92.713 0.390015 92.448 0.390015V0.393616ZM68.219 81.701C68.219 81.746 68.206 81.791 68.179 81.834C68.152 81.876 68.112 81.914 68.063 81.946C68.013 81.979 67.954 82.004 67.889 82.022C67.824 82.039 67.754 82.048 67.684 82.048H58.36C58.217 82.048 58.081 82.012 57.981 81.946C57.88 81.881 57.824 81.793 57.824 81.701V74.96C57.824 74.915 57.838 74.87 57.865 74.827C57.892 74.785 57.931 74.747 57.981 74.715C58.031 74.683 58.09 74.658 58.155 74.64C58.22 74.623 58.289 74.614 58.36 74.614H67.684C67.754 74.614 67.824 74.623 67.889 74.64C67.953 74.658 68.013 74.683 68.062 74.715C68.112 74.747 68.152 74.785 68.179 74.827C68.206 74.87 68.219 74.915 68.219 74.96V81.701ZM68.219 66.216C68.219 66.261 68.205 66.306 68.178 66.348C68.151 66.39 68.111 66.428 68.061 66.46C68.012 66.492 67.953 66.517 67.888 66.534C67.823 66.552 67.754 66.56 67.684 66.56H58.36C58.22 66.559 58.087 66.522 57.989 66.457C57.891 66.393 57.836 66.307 57.835 66.216V59.477C57.835 59.432 57.848 59.386 57.875 59.344C57.902 59.302 57.941 59.264 57.991 59.231C58.041 59.199 58.1 59.173 58.165 59.156C58.23 59.139 58.3 59.13 58.371 59.13H67.684C67.754 59.13 67.824 59.139 67.889 59.156C67.954 59.173 68.014 59.199 68.063 59.231C68.113 59.264 68.153 59.302 68.179 59.344C68.206 59.386 68.22 59.432 68.219 59.477V66.216ZM68.219 50.735C68.219 50.781 68.206 50.826 68.179 50.868C68.152 50.91 68.112 50.949 68.063 50.981C68.013 51.013 67.954 51.039 67.889 51.056C67.824 51.074 67.754 51.083 67.684 51.083H58.36C58.217 51.083 58.081 51.046 57.981 50.981C57.88 50.916 57.824 50.827 57.824 50.735V43.991C57.825 43.899 57.881 43.811 57.982 43.747C58.082 43.682 58.218 43.645 58.36 43.645H67.684C67.825 43.645 67.961 43.682 68.062 43.747C68.162 43.811 68.219 43.899 68.219 43.991V50.735ZM68.219 35.251C68.219 35.343 68.163 35.431 68.063 35.496C67.962 35.562 67.826 35.598 67.684 35.598H58.36C58.218 35.596 58.084 35.558 57.986 35.493C57.888 35.427 57.834 35.339 57.835 35.247V28.5066C57.835 28.4612 57.85 28.4164 57.877 28.3747C57.904 28.3329 57.943 28.295 57.993 28.2633C58.043 28.2315 58.102 28.2064 58.167 28.1894C58.232 28.1725 58.301 28.164 58.371 28.1645H67.684C67.754 28.164 67.823 28.1725 67.888 28.1894C67.952 28.2064 68.011 28.2315 68.061 28.2633C68.111 28.295 68.151 28.3329 68.178 28.3747C68.205 28.4164 68.219 28.4612 68.219 28.5066V35.251ZM68.219 19.7697C68.219 19.8615 68.162 19.9495 68.062 20.0142C67.961 20.079 67.825 20.1154 67.684 20.1154H58.36C58.218 20.1154 58.082 20.079 57.982 20.0142C57.881 19.9495 57.825 19.8615 57.824 19.7697V13.0256C57.824 12.9335 57.88 12.8451 57.981 12.7799C58.081 12.7147 58.217 12.6781 58.36 12.6781H67.684C67.754 12.6781 67.824 12.6871 67.889 12.7046C67.954 12.722 68.013 12.7476 68.063 12.7799C68.112 12.8122 68.152 12.8505 68.179 12.8926C68.206 12.9348 68.219 12.98 68.219 13.0256V19.7697ZM86.508 81.701C86.508 81.746 86.494 81.792 86.467 81.834C86.44 81.876 86.4 81.915 86.35 81.947C86.3 81.979 86.241 82.005 86.175 82.022C86.11 82.04 86.04 82.048 85.969 82.048H76.648C76.578 82.048 76.508 82.04 76.443 82.022C76.377 82.005 76.318 81.979 76.268 81.947C76.219 81.915 76.179 81.876 76.152 81.834C76.126 81.792 76.112 81.746 76.112 81.701V74.96C76.112 74.915 76.126 74.87 76.153 74.827C76.18 74.785 76.22 74.747 76.269 74.715C76.319 74.683 76.378 74.658 76.443 74.64C76.508 74.623 76.578 74.614 76.648 74.614H85.969C86.04 74.614 86.11 74.623 86.175 74.64C86.24 74.657 86.3 74.682 86.35 74.714C86.4 74.747 86.44 74.785 86.467 74.827C86.494 74.869 86.508 74.914 86.508 74.96V81.701ZM86.508 66.216C86.508 66.262 86.495 66.307 86.468 66.35C86.441 66.392 86.401 66.431 86.351 66.463C86.301 66.495 86.241 66.521 86.176 66.538C86.11 66.555 86.04 66.564 85.969 66.564H76.648C76.577 66.564 76.507 66.555 76.442 66.538C76.377 66.521 76.317 66.495 76.268 66.463C76.218 66.431 76.178 66.392 76.152 66.35C76.125 66.307 76.112 66.262 76.112 66.216V59.477C76.112 59.432 76.125 59.386 76.152 59.344C76.178 59.302 76.218 59.263 76.268 59.231C76.317 59.198 76.377 59.173 76.442 59.155C76.507 59.138 76.577 59.129 76.648 59.13H85.969C86.04 59.129 86.11 59.138 86.176 59.155C86.241 59.173 86.301 59.198 86.351 59.231C86.401 59.263 86.441 59.301 86.468 59.344C86.495 59.386 86.508 59.432 86.508 59.477V66.216ZM86.508 50.735C86.508 50.781 86.494 50.826 86.467 50.869C86.44 50.911 86.4 50.949 86.35 50.982C86.3 51.014 86.241 51.039 86.175 51.057C86.11 51.074 86.04 51.083 85.969 51.083H76.648C76.578 51.083 76.508 51.074 76.443 51.057C76.377 51.039 76.318 51.014 76.268 50.981C76.219 50.949 76.179 50.911 76.152 50.868C76.126 50.826 76.112 50.781 76.112 50.735V43.991C76.112 43.946 76.126 43.9 76.153 43.858C76.18 43.816 76.22 43.778 76.269 43.746C76.319 43.714 76.378 43.688 76.443 43.671C76.508 43.654 76.578 43.645 76.648 43.645H85.969C86.04 43.645 86.109 43.654 86.175 43.671C86.24 43.688 86.299 43.714 86.349 43.746C86.399 43.778 86.439 43.816 86.466 43.858C86.493 43.9 86.507 43.945 86.508 43.991V50.735ZM86.508 35.251C86.508 35.296 86.494 35.342 86.467 35.384C86.44 35.426 86.4 35.465 86.35 35.497C86.3 35.529 86.241 35.555 86.175 35.572C86.11 35.59 86.04 35.598 85.969 35.598H76.648C76.578 35.598 76.508 35.59 76.443 35.572C76.377 35.555 76.318 35.529 76.268 35.497C76.219 35.465 76.179 35.426 76.152 35.384C76.126 35.342 76.112 35.296 76.112 35.251V28.5066C76.113 28.4612 76.127 28.4164 76.154 28.3747C76.181 28.3329 76.221 28.295 76.271 28.2633C76.32 28.2315 76.379 28.2064 76.444 28.1894C76.509 28.1725 76.578 28.164 76.648 28.1645H85.969C86.039 28.1637 86.109 28.1721 86.174 28.1889C86.239 28.2057 86.299 28.2308 86.349 28.2626C86.399 28.2944 86.439 28.3324 86.466 28.3742C86.493 28.4161 86.507 28.4611 86.508 28.5066V35.251ZM86.508 19.7697C86.507 19.8153 86.493 19.8605 86.466 19.9025C86.439 19.9446 86.399 19.9828 86.349 20.0149C86.299 20.047 86.24 20.0724 86.175 20.0896C86.109 20.1069 86.04 20.1156 85.969 20.1154H76.648C76.578 20.1156 76.508 20.1069 76.443 20.0896C76.378 20.0723 76.319 20.0469 76.269 20.0148C76.22 19.9827 76.18 19.9445 76.153 19.9024C76.126 19.8603 76.112 19.8152 76.112 19.7697V13.0256C76.112 12.9799 76.126 12.9346 76.152 12.8923C76.179 12.8501 76.219 12.8117 76.268 12.7794C76.318 12.747 76.377 12.7214 76.443 12.7041C76.508 12.6867 76.578 12.6779 76.648 12.6781H85.969C86.04 12.6779 86.11 12.6867 86.175 12.704C86.241 12.7214 86.3 12.747 86.35 12.7792C86.4 12.8115 86.44 12.8499 86.467 12.8922C86.494 12.9345 86.508 12.9798 86.508 13.0256V19.7697Z" fill="white"/>
<path d="M190.17 60.935C190.17 61.079 190.082 61.217 189.925 61.318C189.768 61.42 189.555 61.478 189.333 61.478H147.441C147.219 61.478 147.007 61.42 146.85 61.318C146.693 61.217 146.604 61.079 146.604 60.935V55.505C146.604 55.361 146.693 55.222 146.85 55.121C147.007 55.019 147.219 54.962 147.441 54.962H189.333C189.555 54.962 189.768 55.019 189.925 55.121C190.082 55.222 190.17 55.361 190.17 55.505V60.935Z" fill="white"/>
<path d="M141.647 17.4457C141.583 17.3011 141.449 17.1738 141.264 17.0827C141.079 16.9917 140.854 16.9419 140.623 16.9407C140.414 16.9442 140.211 16.9876 140.04 17.0655L139.964 17.0981L139.621 17.3805L99.59 50.322L99.406 50.484C99.191 50.619 99.066 50.803 99.057 50.998V91.478C99.058 91.563 99.084 91.647 99.134 91.725C99.185 91.804 99.258 91.875 99.351 91.935C99.444 91.994 99.554 92.042 99.675 92.074C99.796 92.106 99.925 92.123 100.056 92.123H140.745C140.876 92.123 141.006 92.106 141.126 92.074C141.247 92.042 141.357 91.994 141.45 91.935C141.542 91.875 141.616 91.804 141.666 91.725C141.716 91.647 141.741 91.563 141.741 91.478V17.7171C141.739 17.6233 141.707 17.5309 141.647 17.4457ZM124.795 35.336L125.074 35.104C127.811 32.823 132.428 29.131 134.677 27.3463L134.973 27.1183C135.082 27.0325 135.219 26.9633 135.373 26.9158C135.528 26.8682 135.697 26.8434 135.869 26.8432C136.134 26.844 136.39 26.9049 136.594 27.0152C136.798 27.1255 136.936 27.2785 136.985 27.4477V35.79C136.983 35.983 136.866 36.169 136.658 36.307C136.45 36.446 136.167 36.526 135.869 36.532C135.849 36.532 135.835 36.532 135.818 36.532C135.802 36.532 135.785 36.532 135.765 36.532H125.774C125.755 36.532 125.741 36.532 125.724 36.532C125.707 36.532 125.691 36.532 125.674 36.532C125.376 36.526 125.093 36.445 124.885 36.307C124.677 36.169 124.56 35.983 124.558 35.79C124.559 35.626 124.642 35.466 124.795 35.336ZM118.462 81.473C118.462 81.558 118.437 81.642 118.387 81.72C118.337 81.799 118.263 81.87 118.171 81.93C118.078 81.99 117.968 82.038 117.847 82.07C117.726 82.102 117.597 82.119 117.466 82.119H105.324C105.193 82.119 105.063 82.102 104.942 82.07C104.821 82.038 104.711 81.99 104.618 81.93C104.526 81.87 104.453 81.799 104.403 81.72C104.353 81.642 104.327 81.558 104.328 81.473V76.544C104.328 76.459 104.353 76.375 104.403 76.297C104.454 76.219 104.527 76.148 104.619 76.088C104.712 76.028 104.822 75.98 104.943 75.948C105.063 75.916 105.193 75.899 105.324 75.9H117.463C117.594 75.899 117.723 75.916 117.844 75.948C117.965 75.98 118.074 76.028 118.167 76.088C118.26 76.148 118.333 76.219 118.383 76.297C118.433 76.375 118.459 76.459 118.459 76.544L118.462 81.473ZM118.462 72.365C118.462 72.45 118.437 72.534 118.387 72.612C118.337 72.691 118.263 72.762 118.171 72.822C118.078 72.882 117.968 72.93 117.847 72.962C117.726 72.995 117.597 73.011 117.466 73.011H105.324C105.193 73.011 105.063 72.995 104.942 72.962C104.821 72.93 104.711 72.882 104.618 72.822C104.526 72.762 104.453 72.691 104.403 72.612C104.353 72.534 104.327 72.45 104.328 72.365V67.436C104.327 67.351 104.352 67.267 104.402 67.188C104.452 67.11 104.525 67.038 104.618 66.978C104.71 66.918 104.82 66.87 104.942 66.838C105.063 66.806 105.193 66.789 105.324 66.79H117.463C117.594 66.789 117.724 66.806 117.845 66.838C117.966 66.87 118.076 66.918 118.169 66.978C118.261 67.038 118.335 67.11 118.385 67.188C118.434 67.267 118.46 67.351 118.459 67.436L118.462 72.365ZM118.462 63.257C118.462 63.342 118.436 63.425 118.386 63.504C118.336 63.582 118.262 63.653 118.17 63.713C118.077 63.773 117.967 63.82 117.847 63.853C117.726 63.885 117.596 63.901 117.466 63.901H105.324C105.193 63.901 105.063 63.885 104.943 63.853C104.822 63.82 104.712 63.773 104.619 63.713C104.527 63.653 104.454 63.582 104.403 63.504C104.353 63.425 104.328 63.342 104.328 63.257V58.326C104.327 58.241 104.353 58.157 104.403 58.079C104.453 58 104.526 57.929 104.618 57.869C104.711 57.809 104.821 57.761 104.942 57.729C105.063 57.696 105.193 57.68 105.324 57.68H117.463C117.594 57.68 117.723 57.696 117.844 57.729C117.966 57.761 118.075 57.809 118.168 57.869C118.261 57.929 118.334 58 118.384 58.079C118.434 58.157 118.459 58.241 118.459 58.326L118.462 63.257ZM118.495 43.298V54.158C118.494 54.329 118.389 54.493 118.203 54.614C118.016 54.735 117.763 54.804 117.499 54.804H105.363C105.231 54.805 105.101 54.788 104.98 54.756C104.858 54.724 104.748 54.676 104.655 54.616C104.562 54.556 104.488 54.485 104.437 54.406C104.387 54.327 104.361 54.243 104.361 54.158V52.791C104.366 52.709 104.391 52.628 104.436 52.551C104.454 52.524 104.474 52.499 104.498 52.475C104.523 52.444 104.553 52.416 104.587 52.39C104.615 52.359 104.662 52.319 104.699 52.285C106.25 50.837 113.253 45.247 116.193 42.909L116.489 42.677C116.598 42.591 116.735 42.522 116.89 42.475C117.045 42.428 117.214 42.404 117.385 42.404C117.65 42.405 117.906 42.466 118.109 42.575C118.313 42.685 118.451 42.838 118.501 43.006L118.495 43.298ZM137.015 81.473C137.015 81.557 136.989 81.641 136.939 81.72C136.889 81.798 136.816 81.869 136.723 81.929C136.631 81.989 136.521 82.037 136.4 82.07C136.28 82.102 136.15 82.119 136.019 82.119H123.883C123.751 82.119 123.621 82.103 123.5 82.071C123.378 82.038 123.268 81.991 123.175 81.931C123.082 81.871 123.008 81.799 122.957 81.721C122.907 81.642 122.881 81.558 122.881 81.473V76.544C122.881 76.459 122.908 76.375 122.958 76.296C123.009 76.218 123.083 76.147 123.176 76.087C123.269 76.027 123.379 75.98 123.5 75.948C123.622 75.915 123.752 75.899 123.883 75.9H136.019C136.283 75.9 136.536 75.967 136.722 76.088C136.909 76.209 137.014 76.373 137.015 76.544V81.473ZM137.015 72.365C137.015 72.536 136.91 72.7 136.723 72.822C136.537 72.943 136.283 73.011 136.019 73.011H123.883C123.751 73.011 123.621 72.995 123.5 72.963C123.378 72.93 123.268 72.883 123.175 72.823C123.082 72.763 123.008 72.691 122.957 72.613C122.907 72.534 122.881 72.45 122.881 72.365V67.436C122.881 67.351 122.906 67.266 122.957 67.188C123.007 67.109 123.081 67.037 123.174 66.977C123.267 66.917 123.378 66.87 123.499 66.838C123.621 66.805 123.751 66.789 123.883 66.79H136.019C136.15 66.79 136.28 66.807 136.4 66.839C136.521 66.872 136.631 66.919 136.723 66.979C136.816 67.039 136.889 67.11 136.939 67.189C136.989 67.267 137.015 67.351 137.015 67.436V72.365ZM137.015 63.257C137.014 63.428 136.908 63.591 136.722 63.712C136.535 63.833 136.283 63.901 136.019 63.901H123.883C123.752 63.902 123.622 63.885 123.5 63.853C123.379 63.821 123.269 63.774 123.176 63.714C123.083 63.654 123.009 63.583 122.958 63.504C122.908 63.426 122.881 63.342 122.881 63.257V58.326C122.881 58.241 122.907 58.157 122.957 58.078C123.008 58 123.082 57.928 123.175 57.868C123.268 57.808 123.378 57.761 123.5 57.728C123.621 57.696 123.751 57.68 123.883 57.68H136.019C136.283 57.68 136.537 57.748 136.723 57.869C136.91 57.991 137.015 58.155 137.015 58.326V63.257ZM137.015 54.147C137.014 54.318 136.909 54.482 136.722 54.603C136.536 54.724 136.283 54.791 136.019 54.791H123.883C123.752 54.792 123.622 54.776 123.5 54.743C123.379 54.711 123.269 54.664 123.176 54.604C123.083 54.544 123.009 54.473 122.958 54.395C122.908 54.316 122.881 54.232 122.881 54.147V49.218C122.881 49.133 122.907 49.049 122.957 48.97C123.008 48.892 123.082 48.82 123.175 48.76C123.268 48.7 123.378 48.653 123.5 48.62C123.621 48.588 123.751 48.572 123.883 48.572H136.019C136.283 48.572 136.537 48.64 136.723 48.761C136.91 48.883 137.015 49.047 137.015 49.218V54.147ZM137.015 45.037C137.015 45.122 136.989 45.206 136.939 45.285C136.889 45.363 136.816 45.434 136.723 45.494C136.631 45.554 136.521 45.602 136.4 45.634C136.28 45.667 136.15 45.683 136.019 45.683H123.883C123.751 45.684 123.621 45.668 123.5 45.635C123.378 45.603 123.268 45.556 123.175 45.495C123.082 45.435 123.008 45.364 122.957 45.285C122.907 45.207 122.881 45.122 122.881 45.037V40.109C122.881 40.023 122.906 39.939 122.957 39.86C123.007 39.781 123.081 39.71 123.174 39.649C123.267 39.589 123.377 39.541 123.499 39.509C123.621 39.477 123.751 39.46 123.883 39.461H136.019C136.15 39.461 136.28 39.477 136.401 39.51C136.522 39.543 136.632 39.59 136.724 39.651C136.817 39.711 136.89 39.782 136.94 39.861C136.99 39.939 137.016 40.024 137.015 40.109V45.037Z" fill="white"/>
</svg>
