<svg width="120" height="98" viewBox="0 0 120 98" fill="none" xmlns="http://www.w3.org/2000/svg">
<path d="M46.9196 28.6723L8.89951 6.71756V77.7376L46.9196 89.2089V28.6723Z" fill="white"/>
<path d="M51.1023 28.8165V89.2343L89.3684 77.7291V6.7197L51.1023 28.8165Z" fill="white"/>
<path d="M119.216 4.91981C119.229 4.32097 119.122 3.72555 118.902 3.1685C118.682 2.61145 118.353 2.10398 117.934 1.67586C117.515 1.24774 117.014 0.907583 116.462 0.67536C115.91 0.443137 115.317 0.323517 114.718 0.323517C114.119 0.323517 113.526 0.443137 112.974 0.67536C112.422 0.907583 111.922 1.24774 111.503 1.67586C111.084 2.10398 110.755 2.61145 110.535 3.1685C110.314 3.72555 110.208 4.32097 110.221 4.91981V9.76402H119.216V4.91981Z" fill="white"/>
<path d="M111.338 76.4783H110.221L114.721 92.2002L119.214 76.4783H118.096H119.214V13.2917H118.096H116.979H115.796H113.558H112.453H111.338H110.219V76.4783H111.338Z" fill="white"/>
<path d="M97.5367 9.76825L93.46 6.54797V79.6646L51.2147 93.3153H49.2601H48.8721H46.9196L4.86304 81.5642V6.54797L0.784164 9.76825V84.424L46.7267 97.144H48.8721H49.2601H51.4055L93.7928 83.6863L97.5367 82.5839V9.76825Z" fill="white"/>
</svg>
