<svg width="137" height="137" viewBox="0 0 137 137" fill="none" xmlns="http://www.w3.org/2000/svg">
<path d="M68.5 29.3588C60.7587 29.3557 53.1903 31.6484 46.7521 35.947C40.3139 40.2456 35.2951 46.357 32.3306 53.5082C29.366 60.6594 28.5889 68.5291 30.0974 76.1221C31.6059 83.715 35.3323 90.69 40.8053 96.1649C46.2783 101.64 53.2521 105.369 60.8445 106.88C68.4369 108.391 76.3069 107.616 83.4591 104.654C90.6114 101.692 96.7245 96.6754 101.025 90.2387C105.326 83.802 107.621 76.2343 107.621 68.493C107.622 58.1161 103.501 48.1638 96.1642 40.8249C88.8279 33.486 78.8769 29.3617 68.5 29.3588ZM65.603 44.8181C65.603 43.5178 66.9087 42.0814 68.516 42.0814C70.1234 42.0814 71.413 43.5178 71.413 44.8181V58.2562C71.413 59.5512 70.118 60.9716 68.516 60.9716C66.914 60.9716 65.603 59.5512 65.603 58.2562V44.8181ZM68.5 88.5447C63.6369 88.537 58.9373 86.7886 55.2517 83.6158C51.5661 80.4431 49.1382 76.0558 48.4074 71.2479C47.6765 66.4401 48.691 61.5294 51.2673 57.4048C53.8436 53.2802 57.8113 50.2142 62.4524 48.7617V56.3418C59.7854 57.7015 57.6541 59.9198 56.4023 62.6391C55.1505 65.3584 54.8511 68.4201 55.5525 71.3304C56.2539 74.2406 57.9152 76.8298 60.2684 78.6803C62.6215 80.5307 65.5294 81.5346 68.523 81.53C71.5166 81.5253 74.4214 80.5125 76.7688 78.6547C79.1162 76.797 80.7695 74.2027 81.4618 71.2902C82.1542 68.3778 81.8454 65.3171 80.5851 62.6017C79.3249 59.8863 77.1867 57.6745 74.5155 56.3232V48.743C79.1685 50.1835 83.1508 53.2446 85.7393 57.3708C88.3279 61.4969 89.3511 66.4145 88.6232 71.2306C87.8953 76.0468 85.4645 80.4424 81.7722 83.6192C78.0799 86.7961 73.3709 88.5437 68.5 88.5447Z" fill="white"/>
<path d="M23.5719 68.1513C23.5719 66.3757 21.9993 64.9473 20.5655 64.9473H3.42675C1.98228 64.9473 0.396301 66.3837 0.396301 68.1513C0.396301 69.9188 1.98228 71.3739 3.42675 71.3739H20.5655C21.9993 71.3739 23.5719 69.9295 23.5719 68.1513Z" fill="white"/>
<path d="M136.604 68.1513C136.604 66.3757 135.031 64.9473 133.597 64.9473H116.461C115.017 64.9473 113.431 66.3837 113.431 68.1513C113.431 69.9188 115.017 71.3739 116.461 71.3739H133.597C135.031 71.3739 136.604 69.9295 136.604 68.1513Z" fill="white"/>
<path d="M68.5 23.2285C70.2702 23.2285 71.704 21.6559 71.704 20.2221V3.08336C71.704 1.63889 70.2649 0.0529175 68.5 0.0529175C66.7351 0.0529175 65.272 1.63889 65.272 3.08336V20.2221C65.272 21.6559 66.7218 23.2285 68.5 23.2285Z" fill="white"/>
<path d="M68.5 136.258C70.2702 136.258 71.704 134.685 71.704 133.251V116.115C71.704 114.673 70.2649 113.085 68.5 113.085C66.7351 113.085 65.272 114.673 65.272 116.115V133.251C65.272 134.685 66.7218 136.258 68.5 136.258Z" fill="white"/>
<path d="M29.518 45.8327C30.4018 44.2921 29.753 42.2656 28.5034 41.5607L13.6315 33.0488C12.3766 32.3305 10.2887 32.7818 9.4049 34.3304C8.52113 35.879 9.18328 37.9162 10.4355 38.6344L25.3101 47.1464C26.5543 47.8592 28.6369 47.3867 29.518 45.8407" fill="white"/>
<path d="M127.611 101.978C128.49 100.442 127.841 98.4104 126.597 97.7055L111.725 89.1935C110.47 88.478 108.379 88.9265 107.498 90.4778C106.617 92.0291 107.274 94.0636 108.526 94.7792L123.401 103.291C124.645 104.004 126.727 103.531 127.611 101.986" fill="white"/>
<path d="M90.8239 29.1666C92.3618 30.045 94.3883 29.3962 95.0959 28.152L103.605 13.2774C104.326 12.0225 103.872 9.93191 102.326 9.05081C100.78 8.16971 98.7377 8.82653 98.0222 10.0814L89.5182 24.956C88.8054 26.2029 89.2779 28.2855 90.8239 29.1692" fill="white"/>
<path d="M34.6791 127.268C36.217 128.146 38.2436 127.497 38.9511 126.25L47.4604 111.379C48.1786 110.126 47.7274 108.033 46.1788 107.152C44.6302 106.271 42.601 106.925 41.8854 108.183L33.3735 123.054C32.6606 124.299 33.1332 126.384 34.6791 127.268Z" fill="white"/>
<path d="M46.1094 29.204C47.6446 28.3202 48.1092 26.2403 47.3936 24.9961L38.8496 10.1402C38.1287 8.88796 36.0942 8.23114 34.5563 9.11491C33.0184 9.99868 32.5511 12.0973 33.2747 13.3495L41.8187 28.2027C42.5369 29.447 44.5688 30.0904 46.1147 29.204" fill="white"/>
<path d="M102.454 127.19C103.992 126.307 104.454 124.227 103.741 122.985L95.1973 108.129C94.4764 106.874 92.4419 106.217 90.9013 107.101C89.3607 107.985 88.8961 110.084 89.6224 111.339L98.1664 126.192C98.8819 127.436 100.916 128.077 102.46 127.19" fill="white"/>
<path d="M107.453 45.7633C108.336 47.3013 110.414 47.7632 111.658 47.0503L126.511 38.5063C127.766 37.7854 128.428 35.7482 127.542 34.2102C126.655 32.6723 124.562 32.2077 123.307 32.9286L108.454 41.4726C107.207 42.1882 106.566 44.2254 107.453 45.766" fill="white"/>
<path d="M9.4663 102.119C10.3501 103.657 12.4273 104.119 13.6742 103.403L28.5274 94.8593C29.7797 94.1384 30.4418 92.1011 29.5527 90.5632C28.6636 89.0253 26.573 88.5607 25.3208 89.2789L10.4675 97.823C9.22066 98.5358 8.57986 100.576 9.4663 102.116" fill="white"/>
</svg>
