<svg width="111" height="149" viewBox="0 0 111 149" fill="none" xmlns="http://www.w3.org/2000/svg">
<path d="M109.753 0.811249H75.3274C75.2113 0.812698 75.1004 0.859652 75.0185 0.942014C74.9367 1.02438 74.8904 1.13557 74.8897 1.25168V12.689C74.8897 12.8053 74.9357 12.9169 75.0177 12.9995C75.0997 13.082 75.211 13.1287 75.3274 13.1294H89.0333L73.8122 28.3644C65.8927 22.1208 56.0999 18.7288 46.0152 18.7359C21.1545 18.7359 0.925171 38.9569 0.925171 63.826C0.925171 86.7173 18.0742 105.653 40.1955 108.525V121.708H26.6225C26.5646 121.707 26.5072 121.717 26.4535 121.739C26.3998 121.76 26.3508 121.792 26.3096 121.832C26.2683 121.873 26.2355 121.921 26.2131 121.974C26.1908 122.028 26.1793 122.085 26.1793 122.143V134.406C26.1789 134.464 26.1901 134.521 26.2123 134.575C26.2345 134.628 26.2673 134.677 26.3086 134.718C26.3499 134.759 26.3989 134.791 26.4528 134.812C26.5067 134.834 26.5644 134.844 26.6225 134.843H40.1955V147.793C40.1951 147.851 40.2062 147.908 40.228 147.961C40.2499 148.014 40.2821 148.063 40.3228 148.103C40.3635 148.144 40.4119 148.176 40.4652 148.198C40.5185 148.22 40.5755 148.231 40.6331 148.231H52.8876C52.9454 148.231 53.0028 148.22 53.0564 148.198C53.1099 148.176 53.1587 148.144 53.1998 148.104C53.241 148.063 53.2737 148.015 53.2962 147.961C53.3187 147.908 53.3304 147.851 53.3308 147.793V134.832H66.9038C66.9611 134.832 67.0179 134.821 67.0709 134.799C67.1238 134.777 67.1719 134.745 67.2123 134.704C67.2527 134.663 67.2847 134.615 67.3064 134.562C67.3281 134.509 67.3391 134.452 67.3387 134.395V122.132C67.3387 122.075 67.3274 122.018 67.3056 121.965C67.2837 121.913 67.2517 121.865 67.2113 121.824C67.1709 121.784 67.123 121.752 67.0702 121.73C67.0175 121.708 66.9609 121.697 66.9038 121.697H53.3308V108.301C74.7235 104.792 91.097 86.1854 91.097 63.8149C91.1048 54.5262 88.2272 45.4645 82.8618 37.8822L97.8696 22.866V35.6689C97.8711 35.786 97.9188 35.8977 98.0024 35.9797C98.0859 36.0617 98.1985 36.1073 98.3156 36.1066H109.753C109.87 36.1073 109.983 36.0617 110.066 35.9797C110.15 35.8977 110.197 35.786 110.199 35.6689V1.25999C110.199 1.20179 110.187 1.14422 110.164 1.09059C110.142 1.03696 110.109 0.988305 110.067 0.947407C110.026 0.906509 109.977 0.874167 109.923 0.852231C109.869 0.830294 109.811 0.819194 109.753 0.819558V0.811249ZM46.0152 97.0051C39.4508 97.0051 33.0339 95.0585 27.5758 91.4115C22.1177 87.7645 17.8636 82.5809 15.3515 76.5162C12.8395 70.4515 12.1822 63.7781 13.4628 57.3398C14.7435 50.9016 17.9045 44.9877 22.5463 40.3459C27.188 35.7042 33.1019 32.5432 39.5401 31.2625C45.9784 29.9819 52.6518 30.6391 58.7165 33.1512C64.7813 35.6633 69.9648 39.9174 73.6118 45.3755C77.2588 50.8335 79.2054 57.2505 79.2054 63.8149C79.1966 72.6148 75.6969 81.0517 69.4745 87.2742C63.252 93.4966 54.8151 96.9963 46.0152 97.0051Z" fill="white"/>
<path d="M66.6241 50.192H26.3677C26.2578 50.1875 26.1505 50.226 26.0687 50.2996C25.9869 50.3731 25.9371 50.4756 25.93 50.5854V60.3302C25.9321 60.3853 25.9452 60.4394 25.9684 60.4893C25.9916 60.5393 26.0246 60.5842 26.0653 60.6213C26.106 60.6584 26.1537 60.6871 26.2056 60.7056C26.2576 60.7241 26.3126 60.7321 26.3677 60.7291H66.6241C66.6797 60.7328 66.7355 60.7254 66.7882 60.7073C66.8409 60.6892 66.8895 60.6607 66.931 60.6235C66.9725 60.5864 67.0062 60.5413 67.0301 60.4909C67.054 60.4405 67.0676 60.3859 67.07 60.3302V50.5854C67.0622 50.4744 67.011 50.371 66.9276 50.2974C66.8442 50.2238 66.7351 50.1859 66.6241 50.192Z" fill="white"/>
<path d="M66.6241 67.5932H26.3677C26.2559 67.5902 26.1474 67.6311 26.0656 67.7073C25.9837 67.7835 25.935 67.8887 25.93 68.0004V77.7452C25.9328 77.7998 25.9464 77.8533 25.97 77.9027C25.9935 77.952 26.0265 77.9962 26.0672 78.0327C26.1079 78.0693 26.1553 78.0974 26.2069 78.1156C26.2584 78.1338 26.3131 78.1416 26.3677 78.1386H66.6241C66.6792 78.1423 66.7346 78.1351 66.787 78.1173C66.8393 78.0995 66.8876 78.0716 66.9291 78.035C66.9706 77.9984 67.0044 77.9539 67.0286 77.9042C67.0528 77.8545 67.0669 77.8005 67.07 77.7452V68.0004C67.0643 67.8875 67.0142 67.7814 66.9307 67.7051C66.8472 67.6289 66.737 67.5887 66.6241 67.5932Z" fill="white"/>
</svg>
