<svg width="448" height="229" viewBox="0 0 448 229" fill="none" xmlns="http://www.w3.org/2000/svg">
<path d="M445.722 112.104C429.807 89.8103 357.822 0.696167 224 0.696167C90.1778 0.696167 18.2293 89.8103 2.28971 112.104C1.61323 113.058 1.02735 113.916 0.556229 114.586C1.02735 115.305 1.61323 116.127 2.28971 117.093C18.2293 139.423 90.1898 228.543 224 228.543C357.81 228.543 429.807 139.423 445.722 117.117C446.417 116.151 446.991 115.305 447.444 114.611C446.993 113.91 446.419 113.082 445.722 112.128V112.104ZM149.376 57.0433C150.584 55.2736 154.588 50.2242 155.072 49.5839C156.104 48.2551 158.152 47.9833 159.583 47.7296C161.015 47.476 162.899 48.2551 163.129 49.3242C163.358 50.3933 162.579 54.5367 161.879 55.2495C159.916 57.2849 154.806 60.16 151.991 59.707C149.811 59.3748 148.971 57.6896 149.376 57.0433ZM144.592 66.5503C144.804 66.2966 144.997 66.0913 145.075 65.9886C146.76 64.0679 150.113 63.6571 152.426 63.2947C154.739 62.9323 157.862 64.0679 158.212 65.6081C158.563 67.1483 152.396 69.9569 151.26 71.0441C148.041 74.0097 143.004 80.0497 140.056 80.7081C139.247 80.913 138.391 80.8253 137.64 80.4604C139.561 75.6429 141.885 70.9958 144.586 66.5684L144.592 66.5503ZM194.664 169.297C192.852 176.424 190.738 178.991 188.938 181.238C187.138 183.485 180.482 186.414 176.254 186.1C172.026 185.786 171.422 174.473 171.422 168.65C171.422 166.645 168.577 172.601 167.091 160.49C166.143 152.741 161.166 161.3 160.816 156.13C160.465 150.959 157.977 151.998 155.38 148.773C152.782 145.547 149.533 149.087 145.897 150.718C142.261 152.348 143.771 153.17 138.649 151.551C138.516 151.509 138.449 151.473 138.323 151.424C133.45 139.942 130.94 127.597 130.942 115.124C130.942 111.977 131.111 108.879 131.407 105.822C131.57 105.515 131.763 105.224 131.981 104.953C136.909 99.118 136.813 97.7529 136.813 97.7529L142.249 95.8684C142.249 95.8684 150.958 97.2093 157.518 99.6797C162.924 101.703 171.41 106.287 176.381 104.27C179.962 102.796 182.759 100.839 182.421 97.8616C182.022 94.1229 179.074 93.235 175.511 95.7537C174.2 96.6838 171.398 90.1184 169.199 90.4566C167.001 90.7948 171.917 98.1636 170.057 98.4777C168.196 98.7918 164.434 90.7828 163.793 89.4842C163.153 88.1856 160.26 84.9783 157.657 87.4306C152.16 92.6552 143.233 92.335 141.439 93.682C136.003 97.765 134.542 92.335 134.662 89.0312C134.88 88.2762 135.103 87.5151 135.345 86.7662C137.127 84.8032 143.523 84.1509 145.722 85.6125C148.138 87.2252 149.865 85.2018 150.807 84.2234C151.75 83.2449 151.411 81.7167 150.807 80.4363C150.203 79.1558 152.015 78.1894 153.26 77.8572C154.504 77.525 158.665 74.6137 160.326 73.6292C161.987 72.6446 170.594 71.6178 174.478 73.5506C176.008 74.3591 177.771 74.6138 179.467 74.2715C181.163 73.9291 182.689 73.0108 183.786 71.6722C185.686 69.4075 187.975 67.4993 190.544 66.0369C191.897 65.4329 187.216 61.0418 183.375 65.8013C179.534 70.5609 177.558 70.9716 175.746 70.9716C173.934 70.9716 163.171 68.2898 161.854 64.8893C160.538 61.4888 165.225 58.9459 169.193 57.0373C173.161 55.1287 184.033 55.1709 186.812 54.5428C192.459 53.3046 199.683 50.4658 203.319 52.9422C206.955 55.4186 188.128 59.6587 194.313 62.9988C196.512 64.2068 206.454 57.2789 209.866 55.5031C217.882 51.3718 202.093 50.0067 204.141 41.6111C206.454 32.1163 184.77 35.7886 173.94 36.5979C186.457 28.591 200.706 23.6927 215.5 22.3116C230.294 20.9304 245.204 23.1065 258.986 28.6582C272.768 34.2099 285.023 42.9764 294.729 54.2266C304.435 65.4768 311.31 78.8845 314.781 93.3316C314.836 94.7854 314.684 96.2395 314.328 97.6503C313.483 101.008 307.08 103.896 303.414 98.4898C302.472 97.1248 298.473 93.3498 298.582 99.8065C298.691 106.263 304.864 106.928 298.902 110.805C292.941 114.683 291.859 113.747 289.105 114.725C286.351 115.704 283.669 122.354 284.352 125.911C285.034 129.469 293.514 139.199 287.209 138.789C285.729 138.674 274.591 131.07 272.755 126.177C270.81 121.025 268.696 115.988 267.192 112.104C265.688 108.22 261.756 107.272 258.41 109.525C255.064 111.778 259.334 114.061 256.948 118.917C254.562 123.773 252.865 128.092 249.368 124.087C240.266 113.662 227.02 118.802 224.972 107.175C223.855 100.888 218.437 101.492 213.907 97.9281C209.377 94.3645 206.822 92.4921 206.055 95.0228C205.385 97.2758 220.304 109.108 221.367 112.134C222.955 116.64 216.903 120.59 212.47 121.677C208.036 122.765 206.116 119.195 201.767 114.665C197.418 110.135 195.527 106.922 195.225 110.473C194.791 115.601 199.351 123.157 203.772 125.948C207.547 128.333 211.775 129.415 210.549 133.292C209.323 137.17 210.549 134.983 206.321 139.163C202.093 143.343 201.284 144.714 201.592 150.518C201.9 156.323 200.384 156.673 199.472 161.511C198.56 166.349 196.452 162.163 194.64 169.26L194.664 169.297ZM294.668 132.108C297.797 131.855 302.52 136.198 300.666 137.865C298.811 139.532 294.137 138.916 291.775 137.067C289.413 135.219 293.255 132.235 294.668 132.108ZM290.7 129.245C289.697 128.871 288.809 127.917 288.048 125.621C287.287 123.326 289.214 121.997 291.068 122.946C292.922 123.894 295.465 126.769 295.465 128.291C295.465 129.813 291.702 129.638 290.676 129.233L290.7 129.245ZM249.537 129.07C247.695 130.713 242.984 130.109 240.628 128.273C238.273 126.437 242.114 123.441 243.515 123.314C246.65 123.03 251.367 127.415 249.555 129.07H249.537ZM211.503 147.583C210.223 149.679 206.714 165.353 204.364 163.529C202.014 161.704 205.318 145.348 205.995 144.104C209.679 137.351 217.64 137.683 211.503 147.583ZM224.187 208.333C215.321 208.336 206.501 207.073 197.992 204.582C197.326 204.055 196.854 203.322 196.649 202.498C196.445 201.674 196.52 200.805 196.862 200.028C199.743 192.508 208.338 189.561 215.115 188.909C230.215 187.435 250.099 198.724 253.258 196.9C256.417 195.075 262.819 186.77 272.193 187.121C278.596 187.368 278.547 188.444 280.697 189.253C264.472 201.654 244.61 208.361 224.187 208.333ZM289.933 181.202C288.925 180.94 287.945 180.578 287.009 180.12C281.918 177.529 282.528 181.667 280.027 180.724C277.527 179.782 282.848 173.99 275.334 178.912C267.82 183.835 269.868 178.151 266.606 169.852C263.345 161.553 270.363 152.077 276.27 149.92C284.37 146.991 289.395 146.393 293.182 145.457C304.38 142.66 306.748 136.016 308.777 140.057C309.164 140.812 309.532 141.537 309.871 142.213C310.778 144.131 311.26 146.222 311.284 148.344C306.571 160.695 299.287 171.903 289.915 181.226L289.933 181.202ZM315.452 134.168C312.951 133.486 302.484 119.014 310.759 109.495C312.136 107.93 307.98 103.322 309.116 103.231C313.646 102.881 316.05 105.689 317.24 109.736C317.33 111.548 317.403 113.324 317.403 115.172C317.401 121.564 316.747 127.939 315.452 134.198" fill="white"/>
</svg>
