<svg width="133" height="132" viewBox="0 0 133 132" fill="none" xmlns="http://www.w3.org/2000/svg">
<path d="M89.6673 73.045H43.3277C43.1869 73.0541 43.0554 73.1181 42.9615 73.2233C42.8676 73.3285 42.8188 73.4664 42.8257 73.6073V87.5353C42.8181 87.6766 42.8666 87.8151 42.9606 87.9208C43.0546 88.0266 43.1865 88.091 43.3277 88.1H89.6673C89.8085 88.091 89.9404 88.0266 90.0344 87.9208C90.1283 87.8151 90.1768 87.6766 90.1693 87.5353V73.6073C90.1761 73.4664 90.1274 73.3285 90.0334 73.2233C89.9395 73.1181 89.808 73.0541 89.6673 73.045Z" fill="white"/>
<path d="M89.6673 43.4095H43.3277C43.187 43.4185 43.0554 43.4826 42.9615 43.5878C42.8676 43.693 42.8188 43.8309 42.8257 43.9717V57.8997C42.8175 58.0412 42.8657 58.1801 42.9598 58.286C43.054 58.3919 43.1863 58.4561 43.3277 58.4645H89.6673C89.8087 58.4561 89.941 58.3919 90.0352 58.286C90.1293 58.1801 90.1775 58.0412 90.1693 57.8997V43.9717C90.1762 43.8309 90.1274 43.693 90.0335 43.5878C89.9396 43.4826 89.808 43.4185 89.6673 43.4095Z" fill="white"/>
<path d="M89.0147 22.3581L66.7711 0.117027C66.6988 0.0459002 66.6014 0.00604248 66.5 0.00604248C66.3986 0.00604248 66.3012 0.0459002 66.2289 0.117027L43.9853 22.3581C43.9317 22.4118 43.8953 22.4802 43.8806 22.5545C43.8658 22.6289 43.8735 22.706 43.9024 22.776C43.9314 22.8461 43.9805 22.906 44.0435 22.9482C44.1065 22.9904 44.1805 23.013 44.2564 23.0132H88.7436C88.8194 23.013 88.8935 22.9904 88.9565 22.9482C89.0195 22.906 89.0686 22.8461 89.0975 22.776C89.1265 22.706 89.1341 22.6289 89.1194 22.5545C89.1047 22.4802 89.0682 22.4118 89.0147 22.3581Z" fill="white"/>
<path d="M109.898 88.2707L132.142 66.0271C132.177 65.9914 132.206 65.949 132.225 65.9023C132.245 65.8555 132.255 65.8054 132.255 65.7548C132.255 65.7042 132.245 65.654 132.225 65.6073C132.206 65.5606 132.177 65.5181 132.142 65.4824L109.898 43.2388C109.844 43.1853 109.776 43.1489 109.701 43.1342C109.627 43.1194 109.55 43.127 109.48 43.156C109.41 43.185 109.35 43.2341 109.308 43.2971C109.266 43.36 109.243 43.4341 109.243 43.5099V87.9996C109.243 88.0755 109.266 88.1495 109.308 88.2125C109.35 88.2755 109.41 88.3246 109.48 88.3535C109.55 88.3825 109.627 88.3902 109.701 88.3754C109.776 88.3607 109.844 88.3242 109.898 88.2707Z" fill="white"/>
<path d="M43.9853 109.154L66.2289 131.39C66.2644 131.426 66.3066 131.454 66.3531 131.474C66.3997 131.493 66.4496 131.503 66.5 131.503C66.5504 131.503 66.6003 131.493 66.6469 131.474C66.6934 131.454 66.7356 131.426 66.7711 131.39L89.0147 109.146C89.0691 109.093 89.1063 109.024 89.1215 108.949C89.1368 108.875 89.1294 108.797 89.1003 108.726C89.0712 108.656 89.0217 108.596 88.9582 108.553C88.8947 108.511 88.82 108.488 88.7436 108.489H44.2564C44.1784 108.487 44.1017 108.509 44.0365 108.551C43.9713 108.594 43.9206 108.656 43.8911 108.728C43.8617 108.8 43.855 108.879 43.8718 108.956C43.8886 109.032 43.9282 109.101 43.9853 109.154Z" fill="white"/>
<path d="M23.1021 43.2388L0.858476 65.4824C0.82258 65.5181 0.794096 65.5606 0.774657 65.6073C0.755219 65.654 0.745209 65.7042 0.745209 65.7548C0.745209 65.8054 0.755219 65.8555 0.774657 65.9023C0.794096 65.949 0.82258 65.9914 0.858476 66.0271L23.1021 88.2707C23.1558 88.3242 23.2241 88.3607 23.2985 88.3754C23.3729 88.3902 23.4499 88.3825 23.52 88.3535C23.5901 88.3246 23.65 88.2755 23.6922 88.2125C23.7344 88.1495 23.757 88.0755 23.7572 87.9996V43.5099C23.757 43.4341 23.7344 43.36 23.6922 43.2971C23.65 43.2341 23.5901 43.185 23.52 43.156C23.4499 43.127 23.3729 43.1194 23.2985 43.1342C23.2241 43.1489 23.1558 43.1853 23.1021 43.2388Z" fill="white"/>
</svg>
