<svg width="127" height="109" viewBox="0 0 127 109" fill="none" xmlns="http://www.w3.org/2000/svg">
<path d="M43.0832 103.684V106.991C43.0768 107.014 43.0729 107.039 43.0714 107.064C43.0727 107.09 43.0766 107.116 43.0832 107.141C43.0999 107.536 43.2668 107.91 43.5499 108.186C43.8329 108.462 44.2107 108.619 44.606 108.626C44.606 108.626 44.6248 108.626 44.6365 108.626H44.6741H83.4491C83.4491 108.626 83.4703 108.626 83.482 108.626H83.5173C83.924 108.618 84.3114 108.452 84.5968 108.162C84.8822 107.872 85.043 107.482 85.0448 107.075C85.0433 107.071 85.0433 107.067 85.0448 107.064V103.313C106.867 96.1595 123.216 78.4734 126.811 56.9192C126.811 56.8722 126.825 56.8299 126.832 56.79C126.845 56.7186 126.852 56.6463 126.854 56.5738C126.854 56.3678 126.814 56.1639 126.735 55.9735C126.656 55.7832 126.541 55.6103 126.395 55.4647C126.25 55.3191 126.077 55.2036 125.886 55.125C125.696 55.0463 125.492 55.006 125.286 55.0063H1.72788C1.52165 55.0057 1.31732 55.0458 1.1266 55.1243C0.935887 55.2028 0.762536 55.3181 0.616487 55.4637C0.470438 55.6093 0.354559 55.7824 0.275494 55.9728C0.196428 56.1633 0.15573 56.3675 0.155731 56.5738L0.237983 57.2788C4.01443 79.0374 20.8099 96.8222 43.0832 103.684Z" fill="white"/>
<path d="M85.0001 2.27701C84.4902 3.00081 72.5451 20.1864 85.2657 34.0819C91.096 40.4598 90.5908 46.0857 88.927 49.8857H97.0815C98.7265 44.2762 98.0497 37.238 91.4415 30.0047C82.0744 19.7634 91.5613 5.9242 91.7047 5.71035C92.8233 4.13115 92.224 2.09606 90.3816 1.14666C88.5392 0.197256 86.1351 0.707206 85.0118 2.27701" fill="white"/>
<path d="M64.3483 49.8857H72.5052C74.1502 44.2739 73.471 37.238 66.8511 30.0047C57.4793 19.7633 66.9592 5.92889 67.1096 5.70329C68.2211 4.13114 67.6336 2.09839 65.7842 1.14664C63.9347 0.194889 61.5401 0.704839 60.4215 2.27699C59.9092 2.99844 47.9665 20.1863 60.687 34.0819C66.5174 40.4598 66.0074 46.0881 64.3483 49.8857Z" fill="white"/>
<path d="M35.8381 2.27701C35.3211 3.00081 23.3831 20.1863 36.1013 34.0819C41.934 40.4622 41.4288 46.0881 39.7673 49.8857H47.9218C49.5668 44.2785 48.89 37.2403 42.263 30.0047C32.8936 19.7634 42.3805 5.9242 42.5309 5.70566C43.6378 4.13115 43.0479 2.09606 41.1985 1.14666C39.349 0.197256 36.9567 0.704855 35.8381 2.27701Z" fill="white"/>
</svg>
