<svg width="126" height="172" viewBox="0 0 126 172" fill="none" xmlns="http://www.w3.org/2000/svg">
<path d="M124.799 0.482881C124.659 0.329275 124.488 0.206948 124.298 0.123903C124.107 0.0408584 123.901 -0.0010303 123.694 0.000973568H1.43013C1.22282 -0.00682185 1.01643 0.0322774 0.82634 0.115357C0.636251 0.198436 0.467374 0.323353 0.332286 0.480793C0.197199 0.638233 0.0993865 0.824139 0.046153 1.02464C-0.00708055 1.22515 -0.0143688 1.43509 0.0248333 1.6388L20.5818 125.867C20.6382 126.2 20.8104 126.503 21.0681 126.722C21.3258 126.941 21.6524 127.062 21.9905 127.063H47.2015L48.9269 147.283H38.3181L63.0034 171.965L87.7459 147.226H77.1405L78.8457 127.074H104.502C104.843 127.075 105.174 126.952 105.432 126.728C105.69 126.503 105.858 126.192 105.903 125.854L125.112 1.64891C125.146 1.44344 125.135 1.23323 125.081 1.03221C125.027 0.831195 124.931 0.643948 124.799 0.482881ZM77.5449 99.9349C75.5845 101.727 73.2805 103.102 70.7728 103.976C68.265 104.851 65.6058 105.207 62.9562 105.024C60.3039 105.209 57.6416 104.854 55.1309 103.979C52.6202 103.104 50.3134 101.728 48.3506 99.9349C39.191 90.7854 42.4599 79.4015 45.6546 73.5175C47.6227 69.8341 61.6958 48.7008 62.909 46.8945V46.753L62.9629 46.8204L63.0101 46.753V46.8945C64.1896 48.6941 78.2863 69.8105 80.2544 73.5175C83.439 79.4015 86.6978 90.7854 77.5449 99.9349ZM116.33 26.6206C113.018 25.1614 108.815 25.6871 104.785 27.3182C89.6196 33.4684 79.2872 35.6792 63.3336 30.6882C53.2843 27.5406 43.882 20.9556 32.7711 24.9592C25.3942 27.6114 18.5228 30.1423 10.1921 30.0782L5.37639 5.38961H119.791L116.33 26.6206Z" fill="white"/>
</svg>
