<svg width="174" height="122" viewBox="0 0 174 122" fill="none" xmlns="http://www.w3.org/2000/svg">
<path d="M173.497 64.25C173.497 56.9899 168.853 51.092 161.784 51.092C158.257 51.092 154 54.962 151.688 57.333C149.366 54.9517 145.403 51.0868 141.884 51.0868C134.831 51.0868 129.885 56.9718 129.885 64.2448C129.874 67.7105 131.217 71.0434 133.628 73.5328L151.714 91.6522L169.774 73.5535L169.759 73.5406C172.168 71.0491 173.509 67.7157 173.497 64.25Z" fill="white"/>
<path d="M96.497 121.237H96.3113C95.6433 121.197 95.0086 120.932 94.5106 120.485C94.0126 120.038 93.6806 119.435 93.5687 118.776L84.3813 65.2639L70.4648 91.0639C70.168 91.6135 69.7054 92.0555 69.1429 92.3271C68.5804 92.5986 67.9466 92.6859 67.3316 92.5764C66.7166 92.467 66.1518 92.1664 65.7176 91.7175C65.2833 91.2685 65.0016 90.694 64.9126 90.0758L59.0044 48.7829L48.1968 73.0607C47.9632 73.5858 47.5827 74.0321 47.1011 74.3457C46.6195 74.6593 46.0574 74.8268 45.4827 74.828H3.47252C2.71587 74.7833 2.00487 74.4513 1.48493 73.8998C0.964997 73.3483 0.675415 72.619 0.675415 71.861C0.675415 71.103 0.964997 70.3737 1.48493 69.8222C2.00487 69.2707 2.71587 68.9386 3.47252 68.894H43.5528L57.7712 36.9613C58.0322 36.3729 58.4774 35.8852 59.0396 35.5717C59.6019 35.2583 60.2508 35.136 60.8886 35.2233C61.5263 35.3106 62.1185 35.6028 62.5758 36.0559C63.0331 36.509 63.3307 37.0984 63.424 37.7353L69.5154 80.3053L83.2384 54.8588C83.5325 54.3158 83.9885 53.8779 84.543 53.606C85.0975 53.334 85.7229 53.2416 86.3324 53.3415C86.9418 53.4413 87.505 53.7286 87.9437 54.1632C88.3824 54.5979 88.6748 55.1585 88.7802 55.767L97.2942 105.321L128.293 2.33C128.466 1.75716 128.808 1.24991 129.274 0.874623C129.74 0.499341 130.309 0.273506 130.905 0.226671C131.502 0.179836 132.099 0.314181 132.618 0.612127C133.137 0.910074 133.554 1.35775 133.814 1.89656L150.127 35.7178C150.306 36.07 150.412 36.4541 150.44 36.8478C150.468 37.2415 150.417 37.6368 150.29 38.0106C150.164 38.3844 149.964 38.7292 149.702 39.0249C149.441 39.3206 149.123 39.5613 148.768 39.7327C148.412 39.9042 148.026 40.0031 147.632 40.0236C147.238 40.0442 146.844 39.9859 146.472 39.8523C146.101 39.7187 145.76 39.5124 145.469 39.2455C145.178 38.9786 144.944 38.6564 144.779 38.2978L131.781 11.36L99.3376 119.121C99.1545 119.733 98.7793 120.268 98.2676 120.65C97.7559 121.031 97.135 121.237 96.497 121.237Z" fill="white"/>
</svg>
