<svg width="210" height="80" viewBox="0 0 210 80" fill="none" xmlns="http://www.w3.org/2000/svg">
<path d="M184.016 6.93288C184.017 5.60355 184.462 4.30434 185.295 3.19941C186.129 2.09449 187.313 1.23343 188.698 0.725054C190.083 0.216676 191.607 0.0837885 193.077 0.343186C194.547 0.602584 195.897 1.24263 196.957 2.18243C198.017 3.12224 198.739 4.31963 199.032 5.62331C199.326 6.92699 199.176 8.27845 198.603 9.5069C198.031 10.7354 197.06 11.7857 195.815 12.5252C194.569 13.2647 193.104 13.6601 191.605 13.6615C189.593 13.6615 187.663 12.9527 186.24 11.6909C184.816 10.4291 184.016 8.71765 184.016 6.93288Z" fill="white"/>
<path d="M200.461 16.2544C202.972 16.4599 205.306 17.4904 207.004 19.1435C208.702 20.7967 209.643 22.9531 209.64 25.1895V43.847C209.64 44.5385 209.33 45.2018 208.779 45.6907C208.228 46.1797 207.48 46.4544 206.7 46.4544C205.92 46.4544 205.173 46.1797 204.621 45.6907C204.07 45.2018 203.76 44.5385 203.76 43.847V27.8212C203.76 27.2185 203.566 26.4069 202.327 26.4069C201.469 26.4069 201.291 27.2113 201.261 27.724V75.7262C201.261 76.7206 200.816 77.6743 200.023 78.3775C199.23 79.0807 198.155 79.4757 197.033 79.4757C195.912 79.4757 194.837 79.0807 194.044 78.3775C193.251 77.6743 192.806 76.7206 192.806 75.7262V48.0655C192.806 47.7593 192.679 46.9672 191.605 46.9672C190.529 46.9672 190.397 47.7593 190.386 48.0655V75.7262C190.4 76.2261 190.302 76.7236 190.096 77.1892C189.89 77.6548 189.581 78.0791 189.188 78.4372C188.794 78.7953 188.324 79.0799 187.804 79.2742C187.284 79.4686 186.726 79.5687 186.162 79.5687C185.598 79.5687 185.04 79.4686 184.521 79.2742C184.001 79.0799 183.531 78.7953 183.137 78.4372C182.743 78.0791 182.435 77.6548 182.229 77.1892C182.023 76.7236 181.924 76.2261 181.939 75.7262V27.724C181.911 27.2113 181.725 26.4069 180.876 26.4069C179.632 26.4069 179.443 27.2185 179.443 27.8212V43.847C179.41 44.5184 179.086 45.1527 178.539 45.6176C177.992 46.0824 177.263 46.3419 176.505 46.3419C175.747 46.3419 175.019 46.0824 174.472 45.6176C173.924 45.1527 173.601 44.5184 173.568 43.847V25.1895C173.567 22.9515 174.51 20.7941 176.21 19.1409C177.911 17.4877 180.248 16.4581 182.761 16.2544C182.942 16.23 183.125 16.2162 183.309 16.2131H199.872C200.066 16.2158 200.259 16.2296 200.45 16.2544" fill="white"/>
<path d="M138.907 10.4661C138.906 9.20631 138.485 7.97497 137.695 6.9278C136.905 5.88063 135.783 5.06468 134.471 4.58314C133.158 4.1016 131.714 3.9761 130.321 4.22252C128.928 4.46894 127.648 5.0762 126.644 5.96751C125.641 6.85882 124.957 7.99413 124.681 9.22985C124.405 10.4656 124.548 11.7462 125.092 12.9098C125.637 14.0733 126.558 15.0675 127.74 15.7667C128.922 16.4658 130.31 16.8385 131.731 16.8375C133.635 16.8362 135.461 16.1643 136.806 14.9695C138.152 13.7747 138.908 12.1548 138.907 10.4661Z" fill="white"/>
<path d="M117.256 24.893L111.285 42.146C111.285 42.146 110.222 45.305 113.244 46.0947C116.266 46.8845 117.165 43.8008 117.165 43.8008L121.979 29.4128C121.979 29.4128 122.253 28.3047 123.179 28.5453C124.106 28.7859 123.766 29.9668 123.766 29.9668L115.387 56.9398H123.179V76.251C123.206 77.1155 123.612 77.9368 124.31 78.5399C125.009 79.1431 125.946 79.4806 126.921 79.4806C127.896 79.4806 128.833 79.1431 129.531 78.5399C130.23 77.9368 130.636 77.1155 130.662 76.251V56.918H132.789V76.2292C132.815 77.0943 133.221 77.9161 133.92 78.5198C134.62 79.1234 135.557 79.4611 136.533 79.4611C137.509 79.4611 138.446 79.1234 139.145 78.5198C139.845 77.9161 140.251 77.0943 140.277 76.2292V56.918H148.067L139.693 29.945C139.693 29.945 139.34 28.781 140.277 28.538C141.214 28.295 141.477 29.4055 141.477 29.4055L146.291 43.7935C146.291 43.7935 147.206 46.8772 150.21 46.0874C153.213 45.2977 152.169 42.146 152.169 42.146L146.198 24.893C146.198 24.893 144.066 19.9091 139.348 19.9091H124.119C119.395 19.9091 117.269 24.893 117.269 24.893" fill="white"/>
<path d="M95.8863 10.4661C95.8857 9.20641 95.464 7.97517 94.6744 6.92805C93.8849 5.88094 92.7629 5.06499 91.4505 4.58337C90.138 4.10176 88.694 3.97612 87.301 4.22234C85.908 4.46857 84.6287 5.07559 83.6247 5.96665C82.6207 6.85771 81.9372 7.9928 81.6607 9.22836C81.3841 10.4639 81.5268 11.7445 82.0709 12.9081C82.615 14.0717 83.5359 15.0661 84.7172 15.7655C85.8985 16.4649 87.2871 16.838 88.7075 16.8375C90.6119 16.8362 92.4379 16.1644 93.784 14.9697C95.1301 13.7749 95.8863 12.1551 95.8863 10.4661Z" fill="white"/>
<path d="M74.2321 24.893L68.2643 42.146C68.2643 42.146 67.1957 45.305 70.2207 46.0947C73.2457 46.8845 74.1416 43.8008 74.1416 43.8008L78.9558 29.4128C78.9558 29.4128 79.2161 28.3047 80.1559 28.5453C81.0958 28.7859 80.7396 29.9668 80.7396 29.9668L72.3634 56.9398H80.1559V76.251C80.1559 77.1314 80.5503 77.9757 81.2522 78.5982C81.9541 79.2207 82.9061 79.5704 83.8988 79.5704C84.8914 79.5704 85.8434 79.2207 86.5454 78.5982C87.2473 77.9757 87.6416 77.1314 87.6416 76.251V56.918H89.7679V76.2292C89.7942 77.0937 90.2 77.9149 90.8988 78.5181C91.5976 79.1213 92.5342 79.4588 93.5093 79.4588C94.4845 79.4588 95.4211 79.1213 96.1199 78.5181C96.8186 77.9149 97.2244 77.0937 97.2508 76.2292V56.918H105.046L96.6726 29.945C96.6726 29.945 96.3165 28.7616 97.2508 28.5234C98.1851 28.2853 98.4536 29.3909 98.4536 29.3909L103.265 43.7789C103.265 43.7789 104.18 46.8626 107.186 46.0729C110.192 45.2831 109.142 42.146 109.142 42.146L103.172 24.893C103.172 24.893 101.043 19.9091 96.3219 19.9091H81.0958C76.3747 19.9091 74.2321 24.893 74.2321 24.893Z" fill="white"/>
<path d="M163.03 46.119C164.212 46.119 165.368 45.8082 166.351 45.2258C167.334 44.6434 168.1 43.8156 168.553 42.847C169.006 41.8784 169.124 40.8125 168.894 39.7841C168.664 38.7557 168.095 37.811 167.259 37.0692C166.424 36.3275 165.359 35.8221 164.2 35.617C163.04 35.4119 161.838 35.5162 160.746 35.9167C159.653 36.3173 158.719 36.9962 158.062 37.8675C157.404 38.7388 157.052 39.7634 157.051 40.8119C157.05 41.5088 157.203 42.1991 157.503 42.8433C157.803 43.4874 158.243 44.0728 158.799 44.5658C159.354 45.0588 160.014 45.4497 160.74 45.7163C161.466 45.9828 162.244 46.1197 163.03 46.119Z" fill="white"/>
<path d="M148.697 62.5896C148.404 63.2092 148.165 64.5336 149.568 65.0973C151.212 65.768 152.13 64.3683 152.13 64.3683L155.38 55.1756C155.38 55.1756 155.944 54.5609 155.944 55.1975V76.8367H155.958C155.982 77.5441 156.315 78.2154 156.888 78.7083C157.461 79.2013 158.227 79.4769 159.025 79.4769C159.823 79.4769 160.59 79.2013 161.163 78.7083C161.735 78.2154 162.069 77.5441 162.093 76.8367V68.2855C162.093 68.2855 161.915 67.0705 163.014 67.0705C164.112 67.0705 163.94 68.2855 163.94 68.2855V76.8269C163.94 77.55 164.264 78.2435 164.84 78.7548C165.417 79.2662 166.199 79.5534 167.014 79.5534C167.829 79.5534 168.611 79.2662 169.188 78.7548C169.764 78.2435 170.088 77.55 170.088 76.8269V55.1878C170.088 54.5511 170.466 55.0055 170.466 55.0055L173.015 61.2993C173.015 61.2993 174.111 64.1108 174.461 64.2347C174.736 64.3362 175.031 64.3887 175.329 64.389C175.626 64.3894 175.921 64.3376 176.196 64.2367C176.472 64.1358 176.722 63.9877 176.932 63.801C177.143 63.6143 177.309 63.3925 177.423 63.1485C177.576 62.8336 177.634 62.489 177.592 62.1483C177.549 61.8076 177.408 61.4824 177.182 61.2045L177.204 61.185C177.13 60.9809 173.395 52.8599 172.957 51.7202C171.609 48.2283 169.154 48.2599 166.792 48.2015C164.43 48.1432 163.014 48.2015 163.014 48.2015C163.014 48.2015 161.504 48.1481 158.383 48.2283C155.262 48.3085 154.273 49.7324 150.845 57.5741C150.355 58.704 148.697 62.3563 148.675 62.575L148.697 62.5896Z" fill="white"/>
<path d="M24.1448 13.6615C25.6458 13.663 27.1135 13.2696 28.3622 12.5311C29.611 11.7926 30.5847 10.7423 31.1602 9.51287C31.7357 8.2835 31.8872 6.93036 31.5953 5.62464C31.3035 4.31893 30.5816 3.11931 29.5208 2.17756C28.4601 1.23581 27.1082 0.594239 25.6363 0.33402C24.1643 0.0738012 22.6384 0.206625 21.2515 0.715688C19.8647 1.22475 18.6793 2.08718 17.8452 3.19386C17.0112 4.30054 16.566 5.60175 16.566 6.93287C16.5682 8.71557 17.3671 10.4248 18.7877 11.6861C20.2083 12.9473 22.1347 13.6577 24.1448 13.6615Z" fill="white"/>
<path d="M33.0663 16.2203C32.8655 16.1841 32.6623 16.1589 32.458 16.145H15.881C15.6965 16.158 15.5133 16.1832 15.333 16.2203C12.818 16.4323 10.4828 17.4693 8.78494 19.1284C7.08706 20.7875 6.14881 22.9489 6.15399 25.1894V43.847C6.15041 44.3179 6.29163 44.7807 6.56247 45.1858C6.8333 45.5908 7.22351 45.9227 7.69113 46.1458C7.64772 46.218 7.61459 46.2947 7.59249 46.3742L0.852093 78.0371C0.82277 78.1642 0.822455 78.2953 0.851167 78.4226C0.879879 78.5498 0.937035 78.6707 1.01927 78.7781C1.1015 78.8854 1.20714 78.9771 1.32996 79.0476C1.45278 79.1182 1.59029 79.1662 1.73437 79.1889C1.80207 79.2006 1.87091 79.2063 1.93987 79.2059C2.19986 79.207 2.45201 79.127 2.65232 78.98C2.85262 78.833 2.98837 78.6283 3.03587 78.4016L9.77079 46.7387C9.78361 46.6152 9.76966 46.4906 9.72969 46.3718C10.3585 46.2269 10.9145 45.8997 11.3093 45.4422C11.704 44.9846 11.9148 44.4231 11.908 43.847V27.8211C11.908 27.2185 12.0861 26.4069 13.3246 26.4069C14.1794 26.4069 14.374 27.2112 14.374 27.7239V75.7262C14.374 76.7251 14.8214 77.6831 15.6179 78.3895C16.4144 79.0958 17.4946 79.4927 18.621 79.4927C19.7474 79.4927 20.8276 79.0958 21.6241 78.3895C22.4205 77.6831 22.868 76.7251 22.868 75.7262V48.0655C22.8651 47.9193 22.8968 47.7743 22.9611 47.6397C23.0253 47.5052 23.1207 47.384 23.2411 47.2842C23.3614 47.1844 23.504 47.108 23.6597 47.0601C23.8153 47.0122 23.9806 46.9937 24.1448 47.006C25.2216 47.006 25.3312 47.7593 25.3312 48.0655V75.7262C25.3312 76.7251 25.7787 77.6831 26.5752 78.3895C27.3716 79.0958 28.4519 79.4927 29.5782 79.4927C30.7046 79.4927 31.7849 79.0958 32.5813 78.3895C33.3778 77.6831 33.8252 76.7251 33.8252 75.7262V27.7239C33.8252 27.2112 34.028 26.4069 34.8747 26.4069C36.1214 26.4069 36.2912 27.2185 36.2912 27.8211V43.847C36.2912 44.5559 36.6088 45.2358 37.174 45.7371C37.7393 46.2384 38.5059 46.52 39.3052 46.52C40.1046 46.52 40.8712 46.2384 41.4365 45.7371C42.0017 45.2358 42.3192 44.5559 42.3192 43.847V25.1894C42.3072 22.9426 41.3533 20.78 39.6431 19.1223C37.933 17.4646 35.5887 16.4302 33.0663 16.2203Z" fill="white"/>
<path d="M62.3678 54.8816L67.9163 45.9514C67.9163 45.9514 68.5849 44.6683 68.5849 44.3622C68.5773 43.9452 68.4188 43.5415 68.1326 43.2106C67.8465 42.8797 67.448 42.6391 66.9959 42.5245C66.5439 42.4098 66.0622 42.4271 65.6221 42.5738C65.1819 42.7205 64.8067 42.9888 64.5516 43.3391H64.527C64.3516 43.4728 61.5595 47.8662 60.6389 48.6851C59.6662 49.5575 58.7921 49.4482 58.7921 49.4482H51.5476C51.5476 49.4482 50.6708 49.5575 49.7008 48.6851C48.7692 47.8687 45.9909 43.4679 45.8128 43.3391L45.7936 43.3537C45.5373 43.0097 45.1643 42.7469 44.7286 42.6033C44.2928 42.4596 43.8168 42.4425 43.3694 42.5545C42.922 42.6665 42.5263 42.9017 42.2395 43.2262C41.9527 43.5507 41.7897 43.9477 41.774 44.3597C41.8053 44.6492 41.8771 44.9341 41.9877 45.2078L48.002 54.8816C48.2083 55.2837 48.3281 55.7163 48.3555 56.1574V58.0625L45.199 68.39H48.35V76.895H48.3911C48.3991 77.5954 48.7184 78.2647 49.2797 78.7575C49.841 79.2503 50.5989 79.5267 51.3887 79.5267C52.1733 79.5332 52.9288 79.2633 53.4892 78.7762C54.0497 78.2892 54.3693 77.6249 54.378 76.929V68.7326C54.3346 68.6851 54.3029 68.6301 54.285 68.5711C54.2671 68.5121 54.2633 68.4504 54.2739 68.39H56.0549C56.0712 68.505 56.06 68.6217 56.022 68.7326V76.929C56.022 77.6379 56.3396 78.3178 56.9048 78.8191C57.47 79.3204 58.2366 79.602 59.036 79.602C59.8354 79.602 60.602 79.3204 61.1672 78.8191C61.7325 78.3178 62.05 77.6379 62.05 76.929V68.39H65.1435L62.05 58.0018V56.1574C62.0736 55.7192 62.1811 55.2878 62.3678 54.8816Z" fill="white"/>
<path d="M55.1671 46.119C56.3495 46.1195 57.5055 45.8091 58.4889 45.227C59.4723 44.6448 60.239 43.8172 60.6921 42.8487C61.1452 41.8801 61.2643 40.8142 61.0344 39.7856C60.8045 38.7571 60.2358 37.8121 59.4003 37.0701C58.5649 36.3281 57.5001 35.8225 56.3406 35.6172C55.1812 35.4118 53.9791 35.516 52.8864 35.9165C51.7936 36.317 50.8594 36.9958 50.2016 37.8672C49.5439 38.7386 49.1923 39.7633 49.1912 40.8119C49.1898 41.5086 49.3433 42.1987 49.643 42.8427C49.9427 43.4867 50.3827 44.0719 50.9378 44.5649C51.4929 45.0579 52.1522 45.4489 52.8779 45.7156C53.6036 45.9823 54.3816 46.1194 55.1671 46.119Z" fill="white"/>
</svg>
