<svg width="148" height="150" viewBox="0 0 148 150" fill="none" xmlns="http://www.w3.org/2000/svg">
<path d="M146.465 83.6112L111.99 63.7143V23.9118C111.991 23.5016 111.884 23.0984 111.68 22.7422C111.477 22.3861 111.184 22.0894 110.83 21.8818L75.189 1.29181C74.8315 1.0851 74.4259 0.976257 74.013 0.976257C73.6001 0.976257 73.1945 1.0851 72.8371 1.29181L37.17 21.876C36.8162 22.0836 36.523 22.3803 36.3195 22.7364C36.116 23.0926 36.0093 23.4958 36.01 23.906V63.7143L1.53479 83.6112C1.17798 83.8169 0.881438 84.1126 0.674813 84.4689C0.468189 84.8251 0.358731 85.2294 0.357391 85.6412V126.821C0.359022 127.233 0.468603 127.637 0.675198 127.993C0.881794 128.35 1.17818 128.645 1.53479 128.851L37.1787 149.441C37.5366 149.646 37.942 149.755 38.3546 149.755C38.7672 149.755 39.1727 149.646 39.5306 149.441L74 129.527L108.464 149.424C108.822 149.629 109.227 149.737 109.64 149.737C110.052 149.737 110.458 149.629 110.815 149.424L146.465 128.834C146.822 128.628 147.118 128.332 147.325 127.976C147.531 127.62 147.641 127.216 147.643 126.804V85.6238C147.639 85.2148 147.528 84.8139 147.322 84.4609C147.115 84.1078 146.82 83.8149 146.465 83.6112ZM71.6452 122.738L43.057 106.228L71.6481 89.7215L71.6452 122.738ZM104.937 65.0744L76.349 81.5725V48.5647L104.937 65.0744ZM71.6481 81.5754L43.0599 65.0715L71.6481 48.5647V81.5754ZM78.7038 85.6354L109.641 67.7888L140.587 85.647L109.641 103.514L78.7038 85.6354ZM107.289 60.9854L78.7038 44.4757L107.289 27.9718V60.9854ZM69.2991 44.4757L40.708 60.9854V27.9863L69.2991 44.4757ZM36.01 143.314L5.06699 125.452V89.7215L36.01 107.6V143.314ZM40.7109 143.314V110.303L69.302 126.812L40.7109 143.314ZM142.945 125.452L111.99 143.314V107.6L142.939 89.7331L142.945 125.452Z" fill="white"/>
</svg>
