<svg width="335" height="171" viewBox="0 0 335 171" fill="none" xmlns="http://www.w3.org/2000/svg">
<path d="M305.358 18.1715C285.162 2.23251 260.956 0.5 251.502 0.5C246.502 0.5 241.899 0.9455 238.483 1.7375L237.147 2.0345C224.376 5.054 202.942 10.103 178.044 41.0405L177.301 41.9315C176.905 42.476 176.707 43.1195 176.658 43.8125C176.658 44.4065 176.806 44.951 177.103 45.446L177.648 46.3865C181.756 53.267 185.172 59.2565 187.894 64.3055C188.736 65.939 190.716 66.5825 192.349 65.741C192.696 65.5925 192.993 65.345 193.24 65.048C193.389 64.8005 193.587 64.553 193.735 64.4045C215.218 34.655 232.098 30.695 243.235 28.0715L244.621 27.725C246.849 27.2795 249.175 27.0815 251.452 27.131C256.65 27.131 274.668 27.9725 288.726 39.11C301.249 49.01 307.585 64.751 307.585 86.036C307.585 121.626 290.359 135.536 275.905 140.882C270.262 142.961 264.273 144.001 258.234 144.001C249.076 143.951 240.018 141.872 231.702 137.962L230.662 137.467C218.238 132.071 199.675 120.835 182.152 85.5905C146.166 13.3205 115.971 6.4895 95.9726 1.985L94.933 1.7375C93.3985 1.391 89.092 0.599006 82.0631 0.599006C70.4801 0.599006 48.2051 2.87599 29.0981 18.122C16.0796 28.517 0.487061 48.713 0.487061 85.937C0.487061 108.608 5.14006 123.557 17.1191 139.298C19.3466 142.367 40.1861 169.295 80.2316 169.295C86.3696 169.295 92.5076 168.652 98.4971 167.513C105.823 166.127 117.06 162.513 129.682 153.257L140.176 162.761C141.414 163.8 143.295 163.751 144.433 162.563C144.928 162.019 145.225 161.326 145.176 160.583L153.492 110.39V109.796C153.492 108.954 153.145 108.163 152.502 107.618C151.908 107.074 151.165 106.826 150.373 106.826L101.566 120.29L100.626 120.438C100.032 120.587 99.487 120.884 99.091 121.329C97.9525 122.567 98.0516 124.448 99.2891 125.587C99.2891 125.587 99.289 125.586 99.3385 125.636L109.437 134.793C104.14 138.06 98.794 140.238 93.646 141.228C89.389 142.07 85.0331 142.466 80.6771 142.516C53.0066 142.516 39.3941 124.349 38.8496 123.607L38.5526 123.211C30.1376 112.172 27.3161 102.767 27.3161 85.937C27.3161 64.6025 33.5531 48.812 45.8291 39.011C59.5406 28.0715 77.1131 27.23 82.2116 27.23C84.5381 27.1805 86.8646 27.3785 89.1416 27.824L90.2305 28.0715C106.219 31.685 128.049 36.635 158.392 97.52C174.381 129.695 194.478 150.683 219.723 161.771C222.643 163.256 238.335 170.731 258.382 170.731C267.589 170.78 276.747 169.147 285.36 165.929C300.111 160.435 334.414 141.624 334.414 86.036C334.414 48.8615 318.624 28.616 305.358 18.1715Z" fill="white"/>
</svg>
