<svg width="271" height="228" viewBox="0 0 271 228" fill="none" xmlns="http://www.w3.org/2000/svg">
<path d="M269.481 165.621C263.229 157.172 222.823 105.673 166.175 105.673C116.972 105.673 64.3644 150.284 64.3644 150.284C64.3644 150.284 44.5987 109.828 4.16277 105.941C3.92918 105.941 3.66577 105.887 3.40733 105.887H3.15386C2.30896 105.936 1.51873 106.757 1.61316 107.487C1.73111 108.018 1.94501 108.524 2.24435 108.978C7.45788 117.601 20.7576 142.227 20.7576 166.804C20.7576 191.475 7.37836 216.156 2.21453 224.769L1.86166 225.316C1.7016 225.572 1.6156 225.868 1.61316 226.171C1.61589 226.575 1.77092 226.963 2.0473 227.258C2.32368 227.553 2.70108 227.732 3.10416 227.761L3.54152 227.726C3.68349 227.732 3.82562 227.719 3.96397 227.687C44.5241 223.909 64.3644 183.329 64.3644 183.329C64.3644 183.329 116.987 227.945 166.175 227.945C222.833 227.945 263.224 176.436 269.481 168.002C269.65 167.773 269.789 167.574 269.914 167.425C269.998 167.229 270.043 167.018 270.048 166.804C270.045 166.592 269.999 166.382 269.914 166.188C269.789 166.014 269.65 165.815 269.481 165.606V165.621ZM197.675 173.325C194.406 173.321 191.213 172.348 188.497 170.53C185.781 168.711 183.666 166.128 182.417 163.108C181.169 160.087 180.844 156.764 181.484 153.559C182.124 150.354 183.699 147.411 186.011 145.101C188.323 142.791 191.268 141.218 194.474 140.581C197.68 139.944 201.002 140.272 204.022 141.523C207.041 142.774 209.622 144.892 211.438 147.609C213.254 150.327 214.224 153.521 214.225 156.789C214.224 158.962 213.796 161.113 212.963 163.12C212.131 165.127 210.912 166.95 209.375 168.485C207.838 170.021 206.014 171.239 204.006 172.069C201.999 172.899 199.847 173.326 197.675 173.325" fill="white"/>
<path d="M2.89043 8.84253C2.78846 8.80963 2.68364 8.78633 2.57733 8.77294C2.3626 8.77425 2.15022 8.81784 1.95234 8.90121C1.75445 8.98459 1.57493 9.10613 1.42402 9.25889C1.2731 9.41165 1.15376 9.59263 1.07279 9.79152C0.991824 9.9904 0.950825 10.2033 0.952134 10.418V21.68C0.948011 21.8965 0.987714 22.1115 1.06885 22.3123C1.14999 22.513 1.27089 22.6952 1.42428 22.848C28.7593 46.6046 54.658 24.339 60.6518 18.4595C60.7636 18.281 60.9087 18.1258 61.0792 18.0022C61.3445 17.8198 61.6569 17.718 61.9788 17.709C62.3878 17.7067 62.7817 17.8635 63.0771 18.1464C63.0986 18.1748 63.1256 18.1985 63.1567 18.2159C94.0452 47.688 126.43 23.8171 133.169 18.2159L133.83 17.6096C134.024 17.5233 134.234 17.4809 134.446 17.4854C134.667 17.4789 134.886 17.5213 135.087 17.6096L135.758 18.2159C142.493 23.8171 174.877 47.688 205.761 18.2159C205.783 18.1948 205.803 18.1715 205.821 18.1464C206.117 17.8649 206.51 17.7082 206.919 17.709C207.241 17.7157 207.554 17.8177 207.818 18.0022C207.995 18.1262 208.149 18.2811 208.271 18.4595C214.26 24.3439 240.123 46.6046 267.488 22.848C267.64 22.6939 267.76 22.5114 267.841 22.311C267.922 22.1106 267.962 21.8962 267.96 21.68V10.418C267.964 10.2042 267.926 9.99181 267.847 9.79303C267.768 9.59426 267.651 9.4131 267.501 9.26007C267.352 9.10704 267.174 8.98518 266.977 8.90156C266.78 8.81794 266.569 8.77422 266.355 8.77294C266.237 8.78412 266.12 8.80744 266.007 8.84253C265.754 8.98666 265.51 9.12581 265.187 9.26994C256.778 13.4795 230.695 23.499 207.038 1.09927C206.815 0.895496 206.581 0.686752 206.347 0.443222C206.13 0.345669 205.895 0.294877 205.656 0.294128C205.489 0.304734 205.323 0.329672 205.159 0.368675C204.829 0.499107 204.543 0.721613 204.334 1.00981C197.277 6.38735 164.893 28.315 136.052 1.41238L135.629 0.999875C135.311 0.697482 134.895 0.520857 134.456 0.502875C134.032 0.523879 133.63 0.700863 133.328 0.999875L132.881 1.41238C104.055 28.315 71.6305 6.38238 64.583 1.00981C64.3859 0.721395 64.1073 0.4982 63.7829 0.368675C63.6193 0.331615 63.4532 0.3067 63.2859 0.294128C63.0515 0.300209 62.8204 0.350802 62.605 0.443222C62.3908 0.67827 62.1599 0.897526 61.9142 1.09927C38.242 23.499 12.1645 13.4795 3.76516 9.26994C3.47193 9.12581 3.18864 8.98666 2.93517 8.84253" fill="white"/>
<path d="M60.6518 59.4918C60.7683 59.3183 60.9147 59.1668 61.0842 59.0445C61.3464 58.8577 61.6571 58.7507 61.9788 58.7364C62.3914 58.7378 62.7872 58.9 63.0821 59.1886C63.1019 59.2167 63.1273 59.2404 63.1567 59.2582C94.0353 88.6955 126.43 64.8345 133.169 59.2582L133.83 58.632C134.027 58.5568 134.236 58.5213 134.446 58.5276C134.668 58.5202 134.889 58.5556 135.097 58.632L135.758 59.2582C142.493 64.8345 174.872 88.6955 205.766 59.2582C205.766 59.2582 205.801 59.2184 205.821 59.1886C206.114 58.9008 206.508 58.7386 206.919 58.7364C207.241 58.7475 207.553 58.8548 207.814 59.0445C207.992 59.1647 208.147 59.3163 208.271 59.4918C214.235 65.3813 240.119 87.6469 267.488 63.8654C267.644 63.7191 267.768 63.5428 267.853 63.3472C267.939 63.1516 267.984 62.9407 267.985 62.7273V51.4205C267.986 51.2082 267.945 50.9979 267.864 50.8016C267.783 50.6053 267.664 50.427 267.514 50.2769C267.364 50.1268 267.185 50.0078 266.989 49.9269C266.793 49.846 266.582 49.8046 266.37 49.8053C266.252 49.8171 266.136 49.8388 266.022 49.8699L265.202 50.2824C256.798 54.4969 230.7 64.4916 207.053 42.1216L206.367 41.4755C206.155 41.3575 205.914 41.3008 205.671 41.3115C205.498 41.3088 205.326 41.3517 205.174 41.4358C204.832 41.5253 204.537 41.7422 204.349 42.0421C197.302 47.4097 164.907 69.3423 136.062 42.4397L135.639 42.0173C135.324 41.7203 134.905 41.558 134.471 41.565C134.05 41.5615 133.645 41.724 133.343 42.0173L132.896 42.4397C104.07 69.3423 71.6454 47.4097 64.598 42.0421C64.4193 41.7444 64.1327 41.5272 63.7978 41.4358C63.644 41.3565 63.4738 41.3139 63.3008 41.3115C63.0664 41.3043 62.8345 41.361 62.6298 41.4755C62.4062 41.6992 62.1676 41.9129 61.9241 42.1216C38.252 64.4867 12.1794 54.4969 3.7751 50.2824L2.9451 49.8699C2.84411 49.8408 2.74112 49.8192 2.63696 49.8053C2.42378 49.804 2.21243 49.8447 2.01503 49.9253C1.81763 50.0058 1.63807 50.1245 1.48663 50.2745C1.33519 50.4246 1.21485 50.6031 1.13251 50.7997C1.05017 50.9964 1.00745 51.2073 1.0068 51.4205V62.7273C1.00385 62.9391 1.0442 63.1494 1.12539 63.3451C1.20658 63.5408 1.32689 63.7178 1.47895 63.8654C28.814 87.6469 54.7176 65.3564 60.7065 59.4918" fill="white"/>
</svg>
