<svg width="319" height="314" viewBox="0 0 319 314" fill="none" xmlns="http://www.w3.org/2000/svg">
<path d="M273.343 2.48901C273.343 2.48901 266.792 11.1904 268.669 19.6738C270.546 28.1571 280.26 33.1972 280.26 33.1972C280.26 33.1972 286.812 24.4958 284.934 16.0203C283.057 7.54472 273.343 2.48901 273.343 2.48901Z" fill="white"/>
<path d="M262.663 52.2204C262.663 52.2204 269.214 43.5111 267.337 35.0356C265.46 26.5601 255.753 21.5121 255.753 21.5121C255.753 21.5121 249.194 30.2136 251.079 38.6969C252.964 47.1802 262.671 52.2204 262.671 52.2204" fill="white"/>
<path d="M289.593 42.9036C289.593 42.9036 296.511 49.9146 304.394 49.1823C312.277 48.4501 318.112 40.3718 318.112 40.3718C318.112 40.3718 311.202 33.3608 303.311 34.0852C295.42 34.8097 289.593 42.9036 289.593 42.9036Z" fill="white"/>
<path d="M300.935 5.60503C294.524 12.1097 295.428 23.6233 295.428 23.6233C295.428 23.6233 306.731 24.6048 313.158 18.108C319.585 11.6111 318.665 0.0897172 318.665 0.0897172C318.665 0.0897172 307.354 -0.891833 300.935 5.60503Z" fill="white"/>
<path d="M286.789 68.7741C294.641 69.7089 302.026 62.9628 302.026 62.9628C302.026 62.9628 296.674 54.682 288.814 53.7861C280.954 52.8903 273.569 59.6053 273.569 59.6053C273.569 59.6053 278.921 67.8471 286.773 68.7741" fill="white"/>
<path d="M293.8 205.208H235.102C232.9 205.208 230.787 206.083 229.23 207.64C227.673 209.198 226.798 211.31 226.798 213.512C226.798 215.715 227.673 217.827 229.23 219.384C230.787 220.942 232.9 221.816 235.102 221.816H293.8C296.002 221.816 298.114 220.942 299.672 219.384C301.229 217.827 302.104 215.715 302.104 213.512C302.104 211.31 301.229 209.198 299.672 207.64C298.114 206.083 296.002 205.208 293.8 205.208" fill="white"/>
<path d="M293.8 296.748H235.102C232.9 296.748 230.787 297.623 229.23 299.181C227.673 300.738 226.798 302.85 226.798 305.053C226.798 307.255 227.673 309.367 229.23 310.925C230.787 312.482 232.9 313.357 235.102 313.357H293.8C296.002 313.357 298.114 312.482 299.672 310.925C301.229 309.367 302.104 307.255 302.104 305.053C302.104 302.85 301.229 300.738 299.672 299.181C298.114 297.623 296.002 296.748 293.8 296.748" fill="white"/>
<path d="M29.8043 185.048C28.4662 184.626 27.1061 184.278 25.7301 184.004C25.7301 184.004 27.2336 184.471 29.8043 185.048Z" fill="white"/>
<path d="M291.642 227.62H237.244C235.991 227.62 234.79 228.117 233.903 229.002C233.017 229.887 232.518 231.088 232.516 232.341V248.817L197.009 252.712L145.135 251.528V219.83C152.108 218.944 159.005 217.543 165.771 215.639C215.713 201.555 226.603 160.268 225.512 131.702C224.43 102.606 233.739 91.3106 247.114 86.286C250.708 84.9574 254.419 83.974 258.199 83.3492C258.347 90.4926 259.757 98.8046 262.99 108.698C264.182 108.636 265.327 108.534 266.535 108.41C263.161 98.2826 261.72 89.9551 261.642 82.8506C265.569 82.3549 269.534 82.235 273.483 82.4923C269.487 80.1698 265.714 77.4839 262.211 74.4686C264.455 60.6959 272.665 52.2359 281.117 43.5812C285.791 38.8216 290.567 33.9061 294.36 28.048L291.416 26.1472C287.832 31.7093 283.135 36.5001 278.609 41.1352C270.367 49.5717 262.04 58.1875 259.22 71.8667C256.209 69.1504 253.346 66.2744 250.643 63.251C238.327 49.4471 222.474 59.5819 199.876 80.6305C177.277 101.679 148.82 102.388 121.041 73.97C84.4277 36.4534 52.4264 36.6715 30.5053 38.7982C45.5011 45.186 50.7593 59.2002 58.339 94.8161C66.2926 132.208 86.383 149.097 113.796 151.426C98.5354 156.824 97.7797 165.448 77.331 179.563C61.3537 190.579 38.8873 187.096 29.812 185.016C46.5293 190.236 66.3393 207.771 84.0616 213.84C94.5177 217.404 105.383 219.631 116.398 220.469V250.803L23.4631 248.684V269.842L197.017 265.869L232.523 269.764V286.224C232.525 287.478 233.024 288.681 233.91 289.568C234.796 290.456 235.998 290.956 237.252 290.961H291.65C292.904 290.956 294.107 290.456 294.994 289.569C295.881 288.681 296.382 287.479 296.386 286.224V232.341C296.382 231.086 295.88 229.884 294.99 228.999C294.101 228.114 292.897 227.618 291.642 227.62ZM124.936 220.983C128.831 221.045 132.687 220.928 136.574 220.664V251.333L124.936 251.068V220.983Z" fill="white"/>
<path d="M18.3763 266.414C18.3763 270.878 15.2604 274.492 11.4277 274.492H7.24443C3.41175 274.492 0.287964 270.878 0.287964 266.414V251.769C0.287964 247.305 3.40396 243.691 7.24443 243.691H11.4277C15.2604 243.691 18.3763 247.305 18.3763 251.769V266.414Z" fill="white"/>
</svg>
