<svg width="310" height="303" viewBox="0 0 310 303" fill="none" xmlns="http://www.w3.org/2000/svg">
<path d="M104.09 175.956C104.273 175.956 104.454 175.992 104.622 176.062C104.791 176.132 104.945 176.234 105.074 176.363C105.203 176.493 105.306 176.646 105.376 176.815C105.446 176.984 105.482 177.165 105.482 177.348V223.225C105.483 223.408 105.447 223.589 105.378 223.758C105.308 223.928 105.205 224.081 105.076 224.211C104.947 224.34 104.793 224.443 104.623 224.513C104.454 224.582 104.273 224.618 104.09 224.617H85.5299C85.3465 224.618 85.1648 224.582 84.9951 224.513C84.8255 224.443 84.6713 224.341 84.5413 224.211C84.4114 224.082 84.3082 223.928 84.2379 223.759C84.1675 223.589 84.1313 223.408 84.1313 223.225V177.348C84.1313 177.165 84.1675 176.983 84.2379 176.814C84.3082 176.644 84.4114 176.491 84.5413 176.361C84.6713 176.232 84.8255 176.129 84.9951 176.06C85.1648 175.99 85.3465 175.955 85.5299 175.956H104.09Z" fill="white"/>
<path d="M307.964 244.311H2.02969C1.65423 244.32 1.29757 244.477 1.03614 244.747C0.774715 245.016 0.629312 245.378 0.631089 245.753V264.452C0.636068 264.819 0.785817 265.169 1.04775 265.426C1.30968 265.683 1.66259 265.827 2.02969 265.825H307.964C308.331 265.824 308.682 265.679 308.945 265.423C309.207 265.167 309.359 264.818 309.369 264.452V245.753C309.367 245.378 309.22 245.017 308.958 244.748C308.696 244.479 308.34 244.322 307.964 244.311" fill="white"/>
<path d="M307.964 281.474H2.0297C1.6653 281.479 1.3172 281.626 1.05951 281.884C0.801818 282.142 0.654886 282.49 0.649994 282.854V301.609C0.656577 301.976 0.806634 302.326 1.06804 302.584C1.32944 302.842 1.68141 302.987 2.04859 302.989H307.964C308.331 302.986 308.683 302.84 308.945 302.583C309.207 302.325 309.359 301.976 309.369 301.609V282.854C309.361 282.486 309.209 282.136 308.947 281.879C308.684 281.621 308.332 281.476 307.964 281.474" fill="white"/>
<path d="M249.746 125.178C245.928 122.185 235.722 115.205 223.286 115.205C214.39 115.205 206.118 118.708 198.716 125.644C198.459 125.888 198.255 126.181 198.114 126.506C197.974 126.83 197.9 127.18 197.897 127.534V129.26C197.878 129.652 197.947 130.043 198.099 130.405C198.25 130.766 198.48 131.09 198.772 131.352C199.067 131.599 199.415 131.774 199.789 131.861C200.164 131.949 200.554 131.947 200.927 131.856C201.122 131.824 201.314 131.776 201.5 131.711C202.075 131.502 202.597 131.171 203.031 130.74C204.631 129.663 209.016 128.22 215.285 128.22C221.761 128.22 234.5 129.959 246.785 141.45L247.068 141.702C247.415 142.056 247.828 142.336 248.285 142.526C248.742 142.717 249.232 142.814 249.727 142.811C250.209 142.813 250.687 142.718 251.131 142.532C251.576 142.346 251.979 142.072 252.316 141.728L252.568 141.469C264.941 129.978 277.655 128.239 284.131 128.239C290.431 128.239 294.841 129.714 296.416 130.759C296.898 131.225 297.477 131.577 298.111 131.793C298.699 131.933 299.313 131.929 299.9 131.78C300.453 131.628 300.94 131.3 301.289 130.845C301.637 130.39 301.826 129.833 301.828 129.26V127.786C301.824 127.432 301.749 127.083 301.609 126.758C301.468 126.434 301.264 126.14 301.009 125.896C293.537 118.777 285.177 115.186 276.143 115.186C263.814 115.186 253.658 122.059 249.727 125.171" fill="white"/>
<path d="M230.764 3.26004C230.44 3.41976 230.154 3.64596 229.924 3.92388C229.694 4.2018 229.525 4.52517 229.428 4.87284L229.119 5.89344C229.002 6.28153 228.977 6.69181 229.047 7.09122C229.117 7.49063 229.28 7.86799 229.523 8.19293C229.742 8.49412 230.025 8.74301 230.352 8.92166C230.679 9.10031 231.041 9.2043 231.413 9.22614C231.54 9.25095 231.67 9.25095 231.797 9.22614C232.311 9.21881 232.817 9.08924 233.271 8.84814C233.89 8.70094 234.525 8.63112 235.161 8.64025C236.528 8.64025 248.864 9.05605 257.016 22.9161L257.123 23.1176C257.323 23.499 257.599 23.8347 257.936 24.1037C258.272 24.3726 258.66 24.5689 259.076 24.68C259.393 24.7736 259.722 24.8244 260.052 24.8312C260.59 24.8325 261.12 24.7028 261.596 24.4533L261.798 24.3525C266.021 22.1792 270.694 21.0228 275.443 20.9756C283.174 20.9756 288.22 24.1256 289.398 25.4423C289.643 25.8848 289.98 26.2694 290.387 26.57C290.706 26.7549 291.039 26.915 291.382 27.0489C291.531 27.0865 291.683 27.1077 291.836 27.1118C291.926 27.1216 292.017 27.1216 292.107 27.1118C292.531 27.1096 292.947 27.0059 293.323 26.8095C293.634 26.6495 293.91 26.428 294.133 26.1584C294.356 25.8887 294.522 25.5765 294.621 25.2408L294.879 24.3398C294.954 24.0994 294.99 23.8484 294.986 23.5964C294.99 23.1329 294.865 22.6773 294.627 22.2797C288.686 11.9666 280.068 9.81204 273.875 9.81204C270.112 9.85891 266.386 10.5581 262.862 11.8784C260.065 8.09844 252.978 0.317932 242.23 0.317932C238.233 0.371661 234.306 1.36438 230.764 3.21594" fill="white"/>
<path d="M166.119 50.3147L166.208 51.6944C166.231 52.0811 166.34 52.4577 166.527 52.7971C166.714 53.1364 166.973 53.4301 167.287 53.6568C167.602 53.8835 167.962 54.0375 168.343 54.1078C168.724 54.1781 169.116 54.1629 169.49 54.0632C169.642 54.0275 169.792 53.9812 169.937 53.9246C170.451 53.712 170.906 53.3767 171.26 52.9481C172.558 52.0094 176.748 50.2958 182.928 50.2958C188.869 50.2958 197.903 51.8834 207.114 59.4497L207.328 59.6702C207.984 60.2385 208.822 60.5536 209.69 60.5585H209.917C210.836 60.4967 211.695 60.0839 212.317 59.4056L212.519 59.1725C222.719 48.3806 233.7 46.7804 239.338 46.7804C243.358 46.7804 246.205 47.6057 247.314 48.2357C247.777 48.626 248.322 48.908 248.908 49.061C249.491 49.2076 250.105 49.1791 250.672 48.9791C251.207 48.7896 251.666 48.4305 251.979 47.9563C252.292 47.4821 252.441 46.9188 252.404 46.352L252.335 45.155C252.313 44.8051 252.22 44.4633 252.062 44.1503C251.904 43.8373 251.684 43.5597 251.415 43.3343C245.329 38.2124 238.759 35.6357 231.847 35.6357C221.087 35.6357 212.5 41.9861 208.947 45.0857C205.696 42.8681 197.796 38.3069 188.535 38.3069C180.395 38.3069 173.1 41.69 166.831 48.3365C166.589 48.5999 166.402 48.9087 166.279 49.245C166.157 49.5812 166.103 49.9384 166.119 50.2958" fill="white"/>
<path d="M11.3033 74.8721C11.3017 70.5152 12.1584 66.2006 13.8246 62.1748C15.4907 58.1491 17.9337 54.491 21.014 51.4096C24.0942 48.3282 27.7514 45.8838 31.7765 44.2161C35.8016 42.5484 40.1159 41.69 44.4728 41.69C45.191 41.69 45.8903 41.753 46.5959 41.7971C47.0853 35.2096 49.0239 28.8115 52.2729 23.0601C55.522 17.3088 60.0015 12.3461 65.3911 8.52678C70.7807 4.7075 76.9475 2.12592 83.4506 0.966529C89.9537 -0.192858 96.6327 0.0985782 103.01 1.82001C109.388 3.54145 115.306 6.65039 120.342 10.9246C125.379 15.1988 129.409 20.5328 132.145 26.5454C134.881 32.5579 136.254 39.1005 136.168 45.7056C136.082 52.3108 134.538 58.8153 131.646 64.7543C143.718 67.4186 154.381 74.4494 161.585 84.4963C168.789 94.5432 172.027 106.898 170.677 119.187C169.327 131.476 163.484 142.832 154.27 151.076C145.057 159.319 133.122 163.867 120.759 163.847C118.737 163.847 53.8346 163.456 53.8346 163.456C46.9017 163.467 40.1177 161.445 34.3216 157.641C28.5256 153.837 23.9718 148.417 21.2234 142.052C18.475 135.687 17.6525 128.656 18.8578 121.829C20.063 115.001 23.2431 108.677 28.0046 103.638C22.932 100.741 18.7155 96.5546 15.7825 91.5028C12.8494 86.451 11.3042 80.7136 11.3033 74.8721Z" fill="white"/>
</svg>
