<svg width="116" height="123" viewBox="0 0 116 123" fill="none" xmlns="http://www.w3.org/2000/svg">
<path d="M104.598 29.08L80.2048 52.2808C79.2856 53.1952 78.8128 53.8696 78.8128 55.7656V120.806C78.8141 121.174 78.9613 121.527 79.2222 121.787C79.4831 122.047 79.8365 122.193 80.2048 122.193H105.405C105.773 122.193 106.126 122.047 106.387 121.787C106.647 121.527 106.794 121.174 106.794 120.806V29.6608C106.794 28.8928 106.194 27.5008 104.601 29.0752" fill="white"/>
<path d="M34.3216 59.32L9.9256 82.5112C9.0088 83.428 8.5336 84.1 8.5336 85.9936V120.794C8.5355 121.162 8.683 121.514 8.94384 121.773C9.20469 122.033 9.55766 122.178 9.9256 122.178H35.1256C35.4933 122.178 35.846 122.033 36.1065 121.773C36.367 121.514 36.5139 121.161 36.5152 120.794V59.8912C36.5152 59.1208 35.908 57.7168 34.3216 59.308" fill="white"/>
<path d="M115.686 0.932827C115.692 0.835162 115.676 0.737454 115.641 0.646348C115.605 0.555241 115.55 0.472868 115.48 0.404824C115.357 0.288396 115.198 0.218028 115.029 0.205627H114.894H114.695L96.016 4.43922L95.6776 4.47523C95.5408 4.5034 95.4145 4.56903 95.3128 4.66482C95.1816 4.7993 95.1081 4.97974 95.1081 5.16762C95.1081 5.3555 95.1816 5.53594 95.3128 5.67042L95.524 5.88163L99.7912 10.1464L57.4648 52.4728L37.9168 32.92C37.8649 32.8669 37.803 32.8247 37.7346 32.7959C37.6661 32.767 37.5926 32.7522 37.5184 32.7522C37.4442 32.7522 37.3707 32.767 37.3022 32.7959C37.2338 32.8247 37.1719 32.8669 37.12 32.92L31.816 38.2264L0.474403 69.5656C0.370607 69.6723 0.312531 69.8152 0.312531 69.964C0.312531 70.1128 0.370607 70.2558 0.474403 70.3624L5.7856 75.6712C5.83735 75.7232 5.89886 75.7645 5.96661 75.7927C6.03437 75.8209 6.10702 75.8354 6.1804 75.8354C6.25378 75.8354 6.32643 75.8209 6.39419 75.7927C6.46194 75.7645 6.52346 75.7232 6.57521 75.6712L37.5352 44.7304L51.7192 58.9192C51.7327 58.9427 51.748 58.9652 51.7648 58.9864L57.0712 64.2856C57.1229 64.3387 57.1846 64.3808 57.2528 64.4096C57.3211 64.4384 57.3944 64.4532 57.4684 64.4532C57.5424 64.4532 57.6157 64.4384 57.684 64.4096C57.7522 64.3808 57.8139 64.3387 57.8656 64.2856L105.892 16.2496L110.37 20.7256C110.435 20.7917 110.513 20.8442 110.598 20.8801C110.684 20.9159 110.776 20.9344 110.868 20.9344C110.961 20.9344 111.053 20.9159 111.138 20.8801C111.224 20.8442 111.301 20.7917 111.366 20.7256C111.492 20.6043 111.565 20.4391 111.57 20.2648V20.2072L115.672 1.13922L115.686 0.932827Z" fill="white"/>
<path d="M69.5992 63.3809L57.796 75.2801C57.6885 75.3712 57.5508 75.4187 57.41 75.4134C57.2692 75.4081 57.1355 75.3502 57.0352 75.2513L46.3432 64.3601C44.3848 62.4113 43.9624 63.9929 43.9624 64.7585V120.801C43.9621 120.983 43.9976 121.163 44.0669 121.331C44.1362 121.499 44.2379 121.652 44.3663 121.781C44.4947 121.91 44.6472 122.012 44.815 122.082C44.9829 122.152 45.1629 122.188 45.3448 122.188H70.5448C70.9121 122.187 71.264 122.04 71.5235 121.78C71.783 121.52 71.929 121.168 71.9296 120.801V63.8201C71.9296 63.0545 71.3272 61.6457 69.5944 63.3809" fill="white"/>
</svg>
